<?xml version="1.0" standalone="no"?>
<!DOCTYPE svg PUBLIC "-//W3C//DTD SVG 20010904//EN"
 "http://www.w3.org/TR/2001/REC-SVG-20010904/DTD/svg10.dtd">
<svg version="1.0" xmlns="http://www.w3.org/2000/svg"
 width="756.000000pt" height="756.000000pt" viewBox="0 0 756.000000 756.000000"
 preserveAspectRatio="xMidYMid meet">
<metadata>
Created by potrace 1.14, written by Peter Selinger 2001-2017
</metadata>
<g transform="translate(0.000000,756.000000) scale(0.100000,-0.100000)"
fill="#000000" stroke="none">
<path d="M3096 7552 c-4 -8 -33 -128 -50 -212 -9 -46 -15 -71 -20 -88 -3 -9
-8 -33 -11 -52 -3 -19 -26 -125 -51 -234 -24 -109 -46 -211 -49 -225 -3 -14
-7 -35 -9 -46 -3 -11 -17 -74 -31 -140 -15 -66 -28 -127 -30 -135 -41 -190
-79 -364 -86 -395 -10 -48 -14 -65 -29 -130 -6 -27 -13 -62 -15 -76 -2 -14
-10 -53 -18 -85 -15 -58 -28 -124 -26 -134 0 -3 -4 -17 -9 -31 -6 -14 -13 -41
-16 -60 -8 -48 -14 -78 -21 -99 -3 -10 -8 -31 -10 -46 -2 -16 -14 -69 -25
-119 -11 -49 -23 -103 -26 -120 -7 -40 -32 -136 -36 -139 -2 -1 -41 -17 -88
-36 -47 -18 -103 -41 -125 -51 -22 -9 -85 -35 -140 -57 -241 -98 -351 -143
-370 -152 -11 -5 -110 -46 -220 -90 -200 -81 -574 -234 -820 -335 -71 -29
-150 -61 -175 -71 -25 -9 -49 -21 -54 -26 -6 -4 -16 -8 -23 -8 -7 0 -32 -9
-56 -20 -23 -10 -67 -29 -97 -40 -30 -12 -71 -28 -90 -36 -19 -9 -64 -28 -100
-43 -98 -40 -95 -54 37 -132 59 -35 122 -71 140 -81 17 -9 77 -44 133 -78 56
-33 104 -60 106 -60 2 0 23 -12 46 -26 33 -21 264 -157 433 -254 17 -10 109
-64 205 -120 96 -57 189 -111 205 -120 45 -26 79 -46 504 -294 l391 -228 1
-37 c1 -20 2 -47 4 -61 1 -14 5 -70 10 -125 4 -55 8 -116 10 -135 1 -19 5 -80
9 -135 4 -55 9 -125 11 -155 3 -30 7 -82 10 -115 3 -33 7 -96 10 -140 3 -44 7
-109 10 -145 4 -36 8 -96 10 -135 3 -38 7 -95 10 -125 5 -53 9 -112 20 -265 3
-38 7 -101 10 -140 3 -38 8 -97 10 -130 10 -144 23 -315 30 -405 13 -173 17
-220 20 -277 5 -81 12 -103 35 -103 14 0 88 58 140 110 11 11 177 158 204 181
16 13 43 38 60 54 30 28 148 134 198 177 13 11 52 46 88 78 36 32 74 67 86 77
35 30 164 145 217 193 27 25 58 52 67 60 9 8 50 44 90 80 40 36 81 72 90 80
78 69 157 139 180 160 15 14 56 50 91 81 35 31 76 67 90 80 14 13 59 53 99 89
41 36 84 74 96 85 68 63 158 141 170 148 10 6 397 -82 574 -130 14 -4 32 -8
40 -9 8 -2 35 -8 60 -14 25 -7 52 -13 60 -15 8 -2 53 -13 100 -25 47 -12 92
-23 100 -25 20 -4 443 -108 595 -145 66 -17 129 -32 140 -34 17 -4 272 -67
804 -197 79 -20 85 -20 97 -4 14 18 12 22 -115 308 -33 76 -61 139 -61 141 0
3 -15 37 -34 78 -19 40 -107 240 -196 443 -89 204 -168 384 -175 400 -8 17
-39 89 -71 160 -31 72 -67 153 -79 180 -41 93 -70 157 -191 434 -119 272 -121
276 -104 301 9 14 113 180 230 370 117 190 234 379 260 420 26 41 102 165 170
275 67 110 175 283 238 385 139 224 351 567 415 671 26 42 47 83 47 92 0 20
-30 29 -77 23 -21 -3 -65 -8 -98 -11 -33 -3 -78 -8 -100 -10 -22 -2 -69 -7
-105 -10 -36 -4 -79 -8 -96 -10 -17 -2 -66 -7 -110 -10 -43 -4 -88 -9 -99 -11
-11 -2 -53 -6 -95 -9 -41 -4 -86 -8 -100 -10 -14 -2 -56 -7 -95 -10 -38 -3
-86 -8 -105 -10 -19 -2 -66 -7 -105 -11 -38 -4 -81 -8 -95 -9 -14 -2 -56 -6
-95 -10 -38 -4 -86 -8 -105 -10 -19 -2 -69 -7 -110 -11 -41 -3 -83 -8 -93 -10
-10 -2 -50 -6 -90 -9 -40 -4 -85 -8 -102 -9 -16 -2 -61 -7 -100 -10 -38 -4
-86 -9 -105 -11 -19 -3 -64 -7 -100 -10 -36 -3 -83 -8 -105 -11 -22 -2 -65 -7
-95 -9 -30 -3 -73 -7 -95 -10 -153 -18 -149 -19 -186 23 -19 20 -56 64 -84 97
-27 33 -59 71 -72 85 -19 22 -183 216 -307 364 -23 27 -50 59 -61 71 -11 13
-38 44 -60 71 -22 26 -107 127 -189 223 -82 97 -167 198 -190 225 -23 27 -46
54 -51 60 -6 6 -33 38 -60 71 -28 33 -52 62 -55 65 -3 3 -55 64 -115 135 -60
72 -114 135 -120 141 -12 14 -25 29 -134 159 -46 55 -102 121 -124 148 -39 44
-69 58 -81 39z m47 -127 c-3 -9 -8 -14 -10 -11 -3 3 -2 9 2 15 9 16 15 13 8
-4z m23 -25 c0 -11 -4 -20 -8 -20 -4 0 -8 9 -8 20 0 11 4 20 8 20 4 0 8 -9 8
-20z m-35 -33 c-10 -9 -11 -8 -5 6 3 10 9 15 12 12 3 -3 0 -11 -7 -18z m70 -1
c-7 -9 -8 -17 -2 -20 5 -3 11 -1 13 5 2 7 8 6 16 -3 9 -12 6 -21 -19 -46 -17
-18 -38 -32 -46 -32 -17 0 -12 -22 7 -28 7 -3 10 0 6 6 -7 12 19 23 39 16 10
-4 13 -2 10 8 -3 7 1 22 8 32 13 17 14 15 14 -22 0 -35 19 -72 37 -72 4 0 2
25 -3 60 -1 3 -5 -1 -10 -9 -7 -10 -9 -7 -8 12 l2 27 16 -22 c10 -12 15 -28
12 -35 -3 -7 -1 -13 5 -13 6 0 12 5 14 12 3 8 7 8 11 2 3 -6 -14 -23 -38 -38
-24 -16 -52 -37 -61 -47 -16 -18 -16 -20 6 -44 16 -17 30 -23 44 -19 17 4 18
3 6 -5 -22 -15 -26 -14 -55 16 l-25 28 -25 -25 c-44 -45 -76 -66 -60 -40 3 6
2 10 -3 10 -11 0 -26 -30 -23 -44 1 -4 -4 -14 -10 -22 -16 -19 -7 -18 38 7 34
18 32 16 -14 -16 -12 -9 -11 -13 6 -29 20 -18 21 -18 48 10 15 16 41 45 56 64
15 19 23 25 17 13 -8 -16 -8 -23 0 -23 6 0 13 7 16 15 4 8 11 15 16 15 6 0 5
-7 -3 -16 -11 -13 -10 -15 6 -12 10 1 20 -3 23 -11 3 -10 0 -12 -14 -7 -43 17
-64 13 -85 -15 -19 -27 -19 -30 -4 -56 16 -27 16 -27 0 -5 -10 12 -22 22 -27
22 -6 0 -4 -8 3 -17 7 -10 10 -15 5 -11 -5 4 -16 0 -25 -9 -11 -12 -13 -17 -3
-21 6 -2 12 -8 12 -14 0 -6 -6 -6 -15 2 -12 10 -18 10 -30 0 -28 -24 -15 0 18
31 17 17 25 29 16 26 -9 -3 -29 6 -44 19 -41 35 -56 29 -17 -7 19 -17 32 -32
30 -35 -3 -2 -20 10 -38 28 l-34 32 22 14 c27 18 29 36 2 22 -16 -9 -18 -8
-14 5 3 8 10 13 14 10 4 -3 13 2 20 11 10 11 10 18 2 26 -9 9 -12 7 -12 -7 0
-10 -3 -16 -6 -12 -3 3 -3 16 1 28 6 18 9 20 16 7 12 -21 56 -15 84 12 24 23
30 64 8 56 -8 -3 -10 1 -6 12 6 15 5 15 -10 3 -9 -7 -17 -9 -17 -3 0 17 28 22
41 6 6 -8 14 -12 17 -9 3 3 -3 14 -13 25 -10 11 -13 20 -8 20 6 0 14 -7 17
-16 5 -13 9 -14 21 -4 8 7 23 9 37 4 22 -6 22 -6 6 13 -10 11 -18 25 -18 32 0
7 -5 9 -11 6 -6 -4 -8 -13 -5 -20 2 -7 -1 -16 -8 -18 -9 -4 -11 2 -8 19 3 15
0 24 -8 24 -7 0 -10 -6 -7 -13 4 -10 -5 -13 -31 -12 -21 1 -48 -5 -62 -14 -22
-13 -24 -13 -13 1 7 8 10 18 6 22 -4 4 1 4 12 0 17 -7 18 -6 7 8 -10 12 -9 18
3 28 21 18 19 35 -2 19 -16 -13 -17 -12 -4 4 8 10 18 14 23 9 10 -10 0 -42
-14 -42 -5 0 -3 -7 6 -15 8 -8 16 -15 18 -15 4 0 7 27 9 88 1 38 4 43 20 39
10 -3 22 -1 25 4 3 5 8 9 11 9 3 0 0 -6 -6 -14z m-61 -26 c0 -5 -7 -7 -15 -4
-8 4 -15 8 -15 10 0 2 7 4 15 4 8 0 15 -4 15 -10z m11 -133 c-4 -4 -21 -10
-37 -12 -25 -5 -27 -3 -13 8 18 14 64 18 50 4z m199 9 c0 -3 -4 -8 -10 -11 -5
-3 -10 -1 -10 4 0 6 5 11 10 11 6 0 10 -2 10 -4z m-45 -36 c-10 -11 -20 -18
-23 -16 -2 3 -13 -4 -25 -14 -11 -11 -23 -18 -25 -15 -7 7 39 46 47 40 4 -2
14 5 21 15 8 11 16 17 19 15 2 -3 -4 -14 -14 -25z m25 -11 c-14 -10 -36 -28
-48 -39 -26 -22 -32 -24 -32 -12 0 4 18 18 40 32 22 14 40 28 40 32 0 5 6 8
13 8 6 -1 1 -10 -13 -21z m-200 1 c0 -5 9 -12 20 -15 11 -3 20 -11 20 -17 0
-7 -5 -6 -14 1 -8 7 -27 14 -43 17 -23 4 -26 3 -15 -8 7 -7 20 -13 30 -13 20
0 23 -27 4 -31 -7 -1 -8 0 -2 3 19 9 10 21 -15 21 -20 0 -23 -3 -14 -14 6 -8
7 -14 3 -14 -5 0 -15 9 -22 21 -8 12 -9 18 -3 14 6 -3 11 -1 11 4 0 6 -6 11
-12 12 -10 0 -10 2 0 6 6 2 10 8 8 11 -2 4 7 8 20 8 13 1 24 -2 24 -6z m262
-24 c3 3 9 0 14 -7 5 -8 3 -10 -5 -4 -9 5 -12 2 -9 -10 1 -10 9 -20 17 -23 9
-3 11 0 6 8 -6 9 -4 11 4 5 9 -5 10 -10 2 -18 -7 -7 -15 -6 -25 2 -8 7 -21 9
-28 5 -10 -5 -11 -4 0 7 17 18 15 34 -3 19 -10 -9 -15 -9 -15 -1 0 6 6 11 13
12 10 0 10 2 0 6 -7 2 -13 9 -13 15 0 6 8 4 18 -5 10 -10 21 -14 24 -11z m-59
-3 c-7 -2 -13 -9 -13 -14 0 -6 5 -7 12 -3 7 4 8 3 4 -4 -4 -7 -3 -12 2 -12 6
0 13 -8 16 -17 6 -14 3 -14 -15 3 -22 19 -22 19 -14 -5 5 -17 4 -22 -6 -18 -8
2 -12 11 -10 18 2 8 4 23 6 34 3 26 3 25 18 24 10 0 10 -2 0 -6z m-33 -23 c0
-5 -5 -10 -11 -10 -5 0 -7 5 -4 10 3 6 8 10 11 10 2 0 4 -4 4 -10z m-90 -20
c0 -5 0 -13 0 -17 0 -5 -11 -9 -25 -10 -22 -2 -23 -1 -7 17 19 21 32 25 32 10z
m180 -20 c0 -5 -4 -10 -10 -10 -5 0 -10 5 -10 10 0 6 5 10 10 10 6 0 10 -4 10
-10z m55 0 c3 -5 1 -10 -4 -10 -6 0 -11 5 -11 10 0 6 2 10 4 10 3 0 8 -4 11
-10z m-137 -40 c-2 -7 -10 1 -17 16 -12 27 -11 28 4 12 10 -9 16 -21 13 -28z
m-153 20 c3 -5 1 -10 -4 -10 -6 0 -11 5 -11 10 0 6 2 10 4 10 3 0 8 -4 11 -10z
m186 -17 c-8 -15 -10 -15 -11 -2 0 17 10 32 18 25 2 -3 -1 -13 -7 -23z m79 12
c-1 -6 9 -13 22 -17 17 -5 14 -6 -12 -4 -25 2 -40 -4 -53 -18 -10 -12 -16 -15
-12 -8 3 6 1 12 -4 12 -6 0 -11 5 -11 11 0 8 5 8 15 -1 18 -15 20 0 3 20 -11
12 -10 12 3 2 14 -10 18 -10 23 4 6 16 28 16 26 -1z m50 5 c0 -5 -5 -10 -11
-10 -5 0 -7 5 -4 10 3 6 8 10 11 10 2 0 4 -4 4 -10z m-282 -12 c-2 -6 -10 -13
-16 -14 -7 -1 -8 0 -2 3 5 2 8 9 4 14 -3 5 0 9 6 9 7 0 10 -5 8 -12z m-58 -2
c0 -2 -7 -6 -15 -10 -8 -3 -15 -1 -15 4 0 6 7 10 15 10 8 0 15 -2 15 -4z m30
-41 c-7 -8 -16 -12 -21 -9 -5 3 -9 0 -9 -6 0 -6 -5 -8 -11 -4 -8 4 -7 9 2 15
7 4 17 5 21 3 4 -3 8 0 8 5 0 6 5 11 11 11 8 0 8 -5 -1 -15z m73 -30 c9 -18 9
-19 -6 -6 -10 7 -17 23 -16 35 0 14 2 16 6 6 3 -8 10 -24 16 -35z m17 25 c0
-11 -2 -20 -4 -20 -2 0 -6 9 -9 20 -3 11 -1 20 4 20 5 0 9 -9 9 -20z m90 10
c8 -5 11 -12 7 -17 -5 -4 -12 -1 -17 7 -8 13 -12 13 -32 1 -21 -13 -22 -13 -9
2 15 19 29 21 51 7z m120 -54 c0 -9 6 -15 13 -13 7 1 11 -7 10 -20 -2 -14 2
-22 10 -20 7 1 12 -8 12 -22 0 -19 -5 -24 -27 -25 -14 -1 -24 2 -21 7 3 5 14
7 24 4 14 -4 19 0 19 14 0 10 -6 18 -12 17 -8 -2 -12 6 -11 19 2 13 -2 22 -9
20 -6 -1 -15 9 -19 23 -4 14 -7 21 -8 16 -1 -6 -8 -1 -16 10 -23 30 -18 35 10
10 14 -13 25 -31 25 -40z m14 49 c3 -8 1 -15 -4 -15 -6 0 -10 7 -10 15 0 8 2
15 4 15 2 0 6 -7 10 -15z m31 -6 c-3 -15 0 -19 11 -15 9 3 12 2 9 -5 -4 -5
-12 -8 -18 -6 -13 4 -20 47 -8 47 6 0 8 -9 6 -21z m-116 -6 c-12 -15 -12 -16
4 -10 11 4 16 3 12 -3 -3 -6 -1 -10 6 -10 7 0 10 -3 7 -6 -4 -3 -16 0 -28 6
-17 9 -19 14 -9 26 6 8 14 14 16 14 3 0 -1 -8 -8 -17z m-179 -38 c0 -5 -5 -3
-10 5 -5 8 -10 20 -10 25 0 6 5 3 10 -5 5 -8 10 -19 10 -25z m116 20 c5 -12
10 -13 20 -4 16 13 15 14 19 -26 2 -16 1 -24 -2 -17 -3 6 -9 10 -14 6 -5 -3
-12 2 -15 10 -3 9 -10 13 -15 10 -5 -3 -6 2 -3 11 5 11 2 14 -12 8 -12 -4 -15
-3 -10 5 10 17 26 15 32 -3z m-54 -2 c-15 -6 -6 -23 11 -19 7 1 9 1 4 -1 -4
-3 -4 -10 0 -16 4 -7 -2 -5 -13 3 -10 8 -21 15 -23 17 -7 4 11 23 22 22 9 0 8
-2 -1 -6z m232 -22 c-2 -3 -12 3 -22 13 -16 17 -16 18 5 5 12 -7 20 -15 17
-18z m41 -10 c-3 -6 -11 -8 -17 -5 -7 5 -9 -2 -4 -22 5 -24 4 -26 -5 -11 -13
22 -4 51 13 41 8 -5 9 -2 4 12 -5 14 -4 16 5 7 6 -6 8 -16 4 -22z m-480 1 c16
-13 21 -23 14 -33 -7 -12 -9 -12 -9 0 0 7 -10 22 -22 32 -27 24 -13 25 17 1z
m151 -27 c-9 -14 -22 -25 -29 -24 -9 0 -8 2 1 6 7 3 18 16 23 30 5 14 12 23
16 20 3 -4 -2 -18 -11 -32z m212 14 c3 -11 2 -12 -6 -1 -5 8 -12 13 -16 12 -4
-1 -12 1 -19 4 -6 2 -1 3 12 2 14 -2 27 -9 29 -17z m-388 -4 c0 -8 -4 -15 -10
-15 -5 0 -7 7 -4 15 4 8 8 15 10 15 2 0 4 -7 4 -15z m201 -12 c-12 -20 -14
-14 -5 12 4 9 9 14 11 11 3 -2 0 -13 -6 -23z m-55 5 c4 -6 3 -8 -4 -4 -5 3
-13 0 -15 -6 -3 -8 -6 -6 -6 5 -1 19 14 23 25 5z m80 -14 c-4 -9 -9 -15 -11
-12 -3 3 -3 13 1 22 4 9 9 15 11 12 3 -3 3 -13 -1 -22z m61 4 c-3 -8 -6 -5 -6
6 -1 11 2 17 5 13 3 -3 4 -12 1 -19z m56 -9 c-5 -5 -17 -3 -29 7 -18 15 -18
15 4 4 18 -9 22 -8 23 7 0 12 2 14 6 5 3 -8 1 -18 -4 -23z m63 6 c-3 -9 -11
-13 -17 -10 -13 9 -8 -27 6 -38 6 -5 4 -7 -5 -4 -18 4 -21 53 -2 50 6 -2 12 5
12 14 0 9 3 14 6 10 4 -3 4 -13 0 -22z m121 11 c0 -8 -6 -12 -14 -9 -7 3 -10
9 -7 14 8 14 21 11 21 -5z m-507 -16 c0 -5 -5 -10 -11 -10 -5 0 -7 5 -4 10 3
6 8 10 11 10 2 0 4 -4 4 -10z m246 -6 c-5 -13 -1 -15 21 -10 27 5 27 5 5 -6
-25 -12 -50 1 -38 21 11 17 19 13 12 -5z m-196 -49 c0 -7 7 -16 16 -19 12 -5
14 -1 9 17 -6 21 -5 21 6 3 10 -17 8 -23 -14 -40 l-27 -21 23 -15 c12 -8 31
-18 42 -21 11 -3 19 -11 18 -17 -4 -17 12 -15 27 3 15 18 56 16 53 -3 -2 -6 6
-12 17 -12 11 0 19 6 18 13 -2 7 7 12 20 12 12 0 22 -4 21 -10 0 -5 8 -13 18
-17 16 -7 16 -8 -2 -5 -11 2 -19 9 -17 15 1 7 -7 12 -17 12 -14 0 -19 -6 -16
-20 2 -11 -1 -23 -7 -26 -6 -4 -8 -2 -4 4 4 6 -3 12 -16 14 -13 2 -22 9 -20
16 1 6 -8 12 -20 12 -20 0 -20 -1 -5 -18 10 -10 17 -23 17 -28 0 -4 -7 2 -16
14 -12 18 -19 20 -29 12 -16 -13 -39 -4 -30 11 4 5 -3 9 -14 9 -11 0 -23 5
-26 10 -4 6 -11 7 -17 4 -6 -4 -8 -2 -5 3 4 6 0 13 -8 17 -19 7 -8 36 14 37
10 0 12 2 3 6 -7 3 -19 18 -28 35 -12 23 -18 27 -29 18 -8 -7 -18 -9 -23 -6
-6 3 -15 -1 -22 -9 -10 -12 -9 -16 5 -21 10 -4 21 -1 26 7 6 10 9 11 9 1 0
-19 -28 -26 -45 -12 -14 11 -14 15 1 31 9 10 22 15 29 13 7 -3 16 0 20 6 8 13
45 -16 45 -35z m20 35 c0 -5 -4 -10 -10 -10 -5 0 -10 5 -10 10 0 6 5 10 10 10
6 0 10 -4 10 -10z m60 -5 c0 -1 -12 -2 -26 -2 -17 0 -22 2 -13 7 10 7 39 3 39
-5z m40 11 c0 -2 -7 -7 -16 -10 -8 -3 -12 -2 -9 4 6 10 25 14 25 6z m167 -18
c-3 -8 -6 -5 -6 6 -1 11 2 17 5 13 3 -3 4 -12 1 -19z m73 18 c0 -2 -7 -7 -16
-10 -8 -3 -12 -2 -9 4 6 10 25 14 25 6z m109 -6 c-6 -5 -18 -6 -26 -3 -19 8
-16 11 13 11 17 0 22 -3 13 -8z m-327 -7 c-6 -2 -10 -9 -7 -14 4 -5 -2 -6 -12
-3 -16 5 -16 4 1 -10 11 -9 15 -16 9 -16 -7 0 -14 4 -18 10 -3 5 -12 7 -20 3
-8 -3 -15 1 -15 8 0 7 3 9 6 6 4 -3 16 0 28 8 11 8 25 15 31 14 5 0 4 -3 -3
-6z m118 -3 c0 -5 -6 -10 -13 -10 -7 0 -13 -9 -14 -20 -1 -11 4 -19 10 -17 7
1 11 -8 10 -21 -2 -13 1 -21 7 -17 13 8 24 -20 16 -41 -5 -13 -9 -13 -30 3
-13 10 -22 20 -20 22 2 2 13 -4 24 -14 19 -18 20 -17 20 3 0 12 -6 21 -12 20
-8 -2 -12 6 -11 19 2 14 -2 22 -9 20 -18 -3 -18 42 1 53 20 12 21 12 21 0z
m-80 -9 c0 -5 -7 -11 -14 -14 -10 -4 -13 -1 -9 9 6 15 23 19 23 5z m266 -3 c4
-7 3 -8 -4 -4 -8 5 -12 -1 -13 -16 0 -13 -3 -17 -6 -10 -5 13 2 42 11 42 3 0
8 -5 12 -12z m94 -14 c0 -2 -9 0 -20 6 -11 6 -20 13 -20 16 0 2 9 0 20 -6 11
-6 20 -13 20 -16z m-470 -5 c7 -11 9 -23 6 -26 -3 -3 -9 3 -13 13 -3 10 -11
22 -17 26 -8 5 -7 8 1 8 7 0 17 -9 23 -21z m130 1 c-8 -5 -19 -10 -25 -10 -5
0 -3 5 5 10 8 5 20 10 25 10 6 0 3 -5 -5 -10z m80 0 c0 -5 -4 -10 -10 -10 -5
0 -10 5 -10 10 0 6 5 10 10 10 6 0 10 -4 10 -10z m87 -12 c-3 -8 -6 -5 -6 6
-1 11 2 17 5 13 3 -3 4 -12 1 -19z m113 12 c0 -5 -4 -10 -10 -10 -5 0 -10 5
-10 10 0 6 5 10 10 10 6 0 10 -4 10 -10z m-149 -27 c-12 -20 -14 -14 -5 12 4
9 9 14 11 11 3 -2 0 -13 -6 -23z m-351 7 c0 -5 -4 -10 -10 -10 -5 0 -10 5 -10
10 0 6 5 10 10 10 6 0 10 -4 10 -10z m149 -34 c0 -6 -3 -5 -6 2 -2 6 -9 10
-14 7 -5 -4 -6 2 -2 11 5 13 3 15 -7 9 -9 -6 -11 -4 -5 5 6 10 11 9 22 -5 7
-11 13 -24 12 -29z m51 27 c0 -3 -6 -3 -14 0 -10 4 -14 0 -13 -14 1 -11 9 -19
20 -19 10 0 16 3 13 8 -2 4 2 15 9 25 13 17 14 17 20 -3 4 -12 4 -24 1 -27 -3
-4 -6 2 -6 12 0 10 -3 15 -7 11 -5 -4 -8 -13 -8 -19 0 -21 -48 -14 -51 7 -2
11 -1 23 2 27 5 8 34 1 34 -8z m233 -6 c4 3 9 -1 12 -9 4 -10 15 -14 28 -12
21 4 21 4 2 -5 -14 -6 -23 -5 -31 5 -6 7 -14 11 -17 8 -3 -3 -10 5 -17 18 -10
20 -10 21 3 6 8 -10 17 -15 20 -11z m57 7 c0 -2 -7 -4 -15 -4 -8 0 -15 4 -15
10 0 5 7 7 15 4 8 -4 15 -8 15 -10z m40 12 c0 -2 -7 -7 -16 -10 -8 -3 -12 -2
-9 4 6 10 25 14 25 6z m46 -11 c-3 -8 0 -15 7 -16 9 0 9 -2 -1 -6 -6 -2 -9
-10 -6 -15 4 -6 2 -8 -4 -5 -5 4 -9 15 -7 25 2 9 4 20 4 25 1 4 4 7 7 7 3 0 4
-7 0 -15z m-262 -10 c3 -8 1 -15 -4 -15 -6 0 -10 7 -10 15 0 8 2 15 4 15 2 0
6 -7 10 -15z m-352 -25 c7 0 6 5 -2 15 -9 10 -9 15 -1 15 6 0 11 -5 11 -11 0
-5 6 -7 13 -3 8 5 8 2 -2 -9 -7 -9 -19 -17 -27 -17 -7 0 -18 -8 -23 -17 -6
-10 -11 -13 -11 -6 0 6 5 15 10 18 6 4 8 16 5 28 -5 19 -5 20 5 5 6 -10 16
-18 22 -18z m122 21 c8 -12 -21 -34 -34 -26 -8 5 -8 11 1 21 13 16 25 18 33 5z
m310 -3 c-3 -4 -11 -5 -19 -1 -21 7 -19 12 4 10 11 0 18 -5 15 -9z m146 2 c0
-5 -2 -10 -4 -10 -3 0 -8 5 -11 10 -3 6 -1 10 4 10 6 0 11 -4 11 -10z m-415
-29 c-6 -5 -25 10 -25 20 0 5 6 4 14 -3 8 -7 12 -15 11 -17z m393 4 c-3 -3 -9
2 -12 12 -6 14 -5 15 5 6 7 -7 10 -15 7 -18z m-598 5 c0 -5 -5 -10 -11 -10 -5
0 -7 5 -4 10 3 6 8 10 11 10 2 0 4 -4 4 -10z m440 0 c-8 -5 -18 -6 -24 -3 -6
4 -6 -1 -2 -13 5 -14 4 -16 -5 -7 -15 15 -6 28 23 30 17 2 19 0 8 -7z m51 -22
c-10 -11 -11 -9 -5 6 6 15 4 17 -6 11 -9 -6 -11 -4 -5 4 5 9 10 10 18 2 8 -8
7 -14 -2 -23z m209 22 c0 -5 -2 -10 -4 -10 -3 0 -8 5 -11 10 -3 6 -1 10 4 10
6 0 11 -4 11 -10z m-630 -20 c-8 -5 -19 -10 -25 -10 -5 0 -3 5 5 10 8 5 20 10
25 10 6 0 3 -5 -5 -10z m120 0 c8 -5 11 -10 5 -10 -5 0 -17 5 -25 10 -8 5 -10
10 -5 10 6 0 17 -5 25 -10z m278 -11 c3 -11 2 -11 -7 1 -10 13 -12 13 -21 0
-5 -8 -10 -10 -10 -4 0 27 31 30 38 3z m117 10 c11 -16 1 -19 -13 -3 -7 8 -8
14 -3 14 5 0 13 -5 16 -11z m63 -14 c-3 -3 -9 2 -12 12 -6 14 -5 15 5 6 7 -7
10 -15 7 -18z m36 17 c3 -5 -1 -9 -9 -9 -8 0 -12 4 -9 9 3 4 7 8 9 8 2 0 6 -4
9 -8z m-142 -9 c-6 -2 -9 -10 -6 -15 4 -7 2 -8 -5 -4 -13 9 -5 26 12 25 9 0 8
-2 -1 -6z m-502 -24 c0 -5 -7 -9 -15 -9 -8 0 -14 -6 -12 -12 1 -7 -5 -13 -13
-13 -8 0 -16 8 -18 18 -2 11 2 18 10 16 27 -3 39 1 32 13 -4 7 -3 8 4 4 7 -4
12 -11 12 -17z m53 2 c-4 -14 14 -15 20 -1 3 6 4 5 3 -2 -2 -7 -9 -13 -17 -13
-8 0 -13 6 -11 13 4 22 -15 12 -27 -14 -6 -15 -14 -24 -17 -21 -9 9 28 58 40
54 6 -3 10 -10 9 -16z m305 -7 c0 -17 -3 -22 -8 -13 -5 6 -6 18 -3 26 8 19 11
16 11 -13z m133 -19 c7 -13 3 -12 -10 5 -11 14 -21 30 -21 35 0 11 14 -7 31
-40z m109 10 c0 -5 -5 -3 -10 5 -5 8 -10 20 -10 25 0 6 5 3 10 -5 5 -8 10 -19
10 -25z m-481 -19 c-3 -3 -11 5 -18 17 -13 21 -12 21 5 5 10 -10 16 -20 13
-22z m301 24 c0 -5 -4 -10 -10 -10 -5 0 -10 5 -10 10 0 6 5 10 10 10 6 0 10
-4 10 -10z m30 0 c0 -5 -2 -10 -4 -10 -3 0 -8 5 -11 10 -3 6 -1 10 4 10 6 0
11 -4 11 -10z m65 0 c-3 -5 -1 -10 6 -10 7 0 10 -3 6 -6 -9 -9 -28 6 -22 17 4
5 8 9 11 9 3 0 2 -4 -1 -10z m49 -5 c-4 -8 -11 -15 -16 -15 -6 0 -5 6 2 15 7
8 14 15 16 15 2 0 1 -7 -2 -15z m124 -10 c-3 -3 -9 2 -12 12 -6 14 -5 15 5 6
7 -7 10 -15 7 -18z m-628 -36 c0 -16 -18 -18 -35 -5 -14 10 -15 15 -5 21 8 5
11 4 7 -2 -4 -6 0 -13 8 -17 18 -6 19 -2 4 27 -10 21 -10 21 5 3 9 -11 16 -23
16 -27z m29 0 c-7 -13 -14 -30 -15 -37 -1 -8 -5 -17 -8 -20 -10 -10 -1 31 12
55 16 29 15 33 -5 27 -15 -5 -16 -4 -3 5 22 15 34 -3 19 -30z m91 15 c0 -8 -4
-14 -10 -14 -5 0 -7 7 -3 16 5 14 3 14 -15 3 -11 -7 -18 -17 -16 -21 3 -5 -2
-11 -10 -14 -9 -3 -13 -10 -10 -15 3 -5 -3 -6 -12 -2 -11 4 -13 8 -6 11 7 2
10 8 7 13 -4 5 1 6 10 3 9 -4 15 -2 13 4 -4 13 34 42 44 36 5 -3 8 -12 8 -20z
m98 0 c0 -17 -3 -22 -8 -13 -5 6 -6 18 -3 26 8 19 11 16 11 -13z m48 11 c-11
-8 -25 -15 -30 -15 -6 1 0 7 14 15 32 19 40 18 16 0z m149 -20 c2 -14 0 -25
-4 -25 -4 0 -8 14 -8 30 0 35 8 32 12 -5z m-75 15 c0 -5 -5 -10 -11 -10 -5 0
-7 5 -4 10 3 6 8 10 11 10 2 0 4 -4 4 -10z m50 -10 c0 -4 -6 -10 -13 -13 -7
-3 -13 3 -13 13 0 10 6 16 13 13 7 -3 13 -9 13 -13z m144 5 c-23 -17 -34 -19
-34 -4 0 5 4 8 9 4 5 -3 12 -1 16 5 3 5 11 10 18 10 6 0 2 -7 -9 -15z m-654
-5 c0 -5 -4 -10 -10 -10 -5 0 -10 5 -10 10 0 6 5 10 10 10 6 0 10 -4 10 -10z
m60 -11 c0 -6 -4 -7 -10 -4 -5 3 -10 11 -10 16 0 6 5 7 10 4 6 -3 10 -11 10
-16z m236 9 c4 -6 3 -8 -4 -4 -5 3 -12 1 -14 -6 -2 -6 -15 -13 -29 -15 -18 -2
-20 -1 -9 6 8 5 18 7 22 5 4 -3 8 2 8 10 0 19 16 21 26 4z m304 4 c0 -5 -7 -9
-15 -9 -8 0 -12 4 -9 9 3 4 9 8 15 8 5 0 9 -4 9 -8z m-569 -27 c0 -6 11 -16
25 -23 13 -7 22 -17 19 -22 -4 -6 4 -9 17 -7 13 1 22 -3 21 -10 -2 -6 6 -11
17 -10 14 1 18 6 15 18 -7 20 10 35 21 18 4 -8 3 -9 -4 -5 -8 5 -11 -1 -9 -16
1 -18 -3 -22 -23 -23 -15 0 -24 5 -23 12 2 8 -6 12 -20 10 -14 -1 -21 3 -19
12 2 9 -3 11 -13 7 -9 -3 -14 -2 -11 3 3 5 -1 12 -10 15 -8 3 -12 10 -9 16 3
5 1 10 -4 10 -16 0 -13 -22 5 -48 8 -12 13 -26 9 -32 -8 -14 -33 -1 -40 21 -4
11 -10 17 -15 14 -5 -3 -11 -1 -14 4 -13 20 24 4 43 -19 24 -30 28 -19 5 15
-17 26 -12 59 7 53 6 -2 10 -8 10 -13z m280 -2 c-25 -44 -30 -49 -28 -26 0 12
4 20 8 17 4 -2 9 3 13 11 3 8 8 15 11 15 3 0 1 -8 -4 -17z m76 11 c-3 -3 -12
-4 -19 -1 -8 3 -5 6 6 6 11 1 17 -2 13 -5z m40 0 c-3 -3 -12 -4 -19 -1 -8 3
-5 6 6 6 11 1 17 -2 13 -5z m236 -11 c-5 -12 -3 -14 7 -8 9 5 11 4 6 -4 -6 -9
-11 -9 -22 0 -12 10 -12 14 -2 20 18 12 18 11 11 -8z m114 10 c-4 -3 -1 -13 6
-22 11 -14 10 -14 -5 -2 -21 15 -23 31 -6 31 6 0 8 -3 5 -7z m-203 -17 c-10
-8 -21 -12 -24 -10 -5 6 21 24 34 24 6 0 1 -6 -10 -14z m-479 -6 c13 -6 15 -9
5 -9 -8 0 -22 4 -30 9 -18 12 -2 12 25 0z m265 5 c0 -7 -30 -13 -34 -7 -3 4 4
9 15 9 10 1 19 0 19 -2z m40 -10 c0 -8 -2 -15 -4 -15 -2 0 -6 7 -10 15 -3 8
-1 15 4 15 6 0 10 -7 10 -15z m40 11 c0 -3 -4 -8 -10 -11 -5 -3 -10 -1 -10 4
0 6 5 11 10 11 6 0 10 -2 10 -4z m23 -14 c-10 -10 -20 -17 -22 -16 -6 5 20 34
30 34 5 0 1 -8 -8 -18z m152 8 c3 -5 1 -10 -4 -10 -6 0 -11 5 -11 10 0 6 2 10
4 10 3 0 8 -4 11 -10z m-100 -9 c3 -5 0 -13 -6 -17 -8 -5 -9 -3 -4 6 6 9 1 10
-16 5 -19 -5 -21 -4 -9 4 19 13 27 14 35 2z m-300 -12 c11 -16 1 -19 -13 -3
-7 8 -8 14 -3 14 5 0 13 -5 16 -11z m111 -1 c5 -7 3 -8 -6 -3 -10 6 -12 4 -7
-8 3 -10 2 -17 -3 -17 -11 0 -13 23 -3 33 9 9 11 9 19 -5z m54 2 c0 -5 -7 -7
-15 -4 -8 4 -15 8 -15 10 0 2 7 4 15 4 8 0 15 -4 15 -10z m157 -2 c-2 -7 3
-19 12 -26 14 -11 13 -12 -6 -2 -14 6 -20 16 -17 25 7 18 17 20 11 3z m46 -5
c-5 -12 -3 -14 7 -8 9 6 11 4 5 -4 -5 -9 -11 -9 -17 -3 -6 6 -7 15 -4 21 11
17 16 13 9 -6z m237 2 c-6 -7 -8 -20 -4 -29 4 -10 1 -16 -7 -16 -7 0 -9 3 -6
7 4 3 -1 15 -10 25 -16 18 -16 18 2 12 11 -5 16 -4 12 3 -3 5 0 10 8 10 10 0
12 -4 5 -12z m-550 -14 c0 -4 -6 -8 -13 -8 -8 0 -14 6 -14 13 0 7 6 10 14 7 7
-3 13 -8 13 -12z m151 -8 c-12 -20 -14 -14 -5 12 4 9 9 14 11 11 3 -2 0 -13
-6 -23z m252 8 c3 -15 1 -18 -11 -14 -11 5 -13 3 -7 -7 5 -9 4 -11 -3 -6 -9 5
-8 12 1 26 14 24 14 24 20 1z m-479 -5 c-4 -9 2 -13 18 -12 17 1 23 -4 23 -19
0 -11 7 -23 15 -27 11 -6 10 -7 -5 -5 -14 2 -19 9 -17 23 2 17 -2 21 -20 20
-14 -1 -24 5 -26 17 -2 9 1 17 7 17 6 0 8 -6 5 -14z m166 -1 c0 -8 -2 -15 -4
-15 -2 0 -6 7 -10 15 -3 8 -1 15 4 15 6 0 10 -7 10 -15z m116 0 c-1 -8 -6 -18
-11 -22 -4 -4 -5 -2 -1 5 4 6 2 12 -4 12 -6 0 -8 5 -5 10 9 15 24 12 21 -5z
m263 -8 c8 -10 7 -14 -4 -14 -8 0 -11 5 -8 10 4 6 -1 8 -11 4 -10 -4 -15 -3
-11 3 8 14 20 12 34 -3z m-683 -23 c-3 -15 -8 -29 -11 -32 -3 -3 -3 5 -1 19 2
13 5 27 5 32 1 4 3 7 6 7 3 0 3 -12 1 -26z m254 10 c0 -2 -7 -4 -15 -4 -8 0
-15 4 -15 10 0 5 7 7 15 4 8 -4 15 -8 15 -10z m21 -7 c-10 -9 -11 -8 -5 6 3
10 9 15 12 12 3 -3 0 -11 -7 -18z m35 -9 c-9 -12 -16 -19 -16 -15 0 11 24 47
28 42 2 -2 -3 -14 -12 -27z m124 7 c-7 -8 -16 -15 -21 -15 -5 0 -1 8 9 18 20
22 31 19 12 -3z m-216 0 c3 -8 1 -15 -4 -15 -6 0 -10 7 -10 15 0 8 2 15 4 15
2 0 6 -7 10 -15z m-279 -47 c-1 -12 -8 -24 -16 -26 -8 -2 -10 0 -4 5 15 12 15
43 0 43 -7 0 -15 7 -19 15 -5 13 -3 13 18 0 13 -9 22 -24 21 -37z m20 42 c13
-6 15 -9 5 -9 -8 0 -22 4 -30 9 -18 12 -2 12 25 0z m82 4 c-3 -3 -12 -4 -19
-1 -8 3 -5 6 6 6 11 1 17 -2 13 -5z m80 -9 c0 -8 -4 -15 -9 -15 -4 0 -8 7 -8
15 0 8 4 15 8 15 5 0 9 -7 9 -15z m228 5 c3 -5 1 -10 -4 -10 -6 0 -11 5 -11
10 0 6 2 10 4 10 3 0 8 -4 11 -10z m40 0 c3 -6 -1 -7 -9 -4 -18 7 -21 14 -7
14 6 0 13 -4 16 -10z m85 -9 c7 -15 7 -19 -5 -17 -8 1 -18 6 -22 11 -5 4 -2 5
6 0 11 -6 13 -4 8 8 -9 23 0 21 13 -2z m90 9 c0 -5 -2 -10 -4 -10 -3 0 -8 5
-11 10 -3 6 -1 10 4 10 6 0 11 -4 11 -10z m80 0 c0 -5 -4 -10 -10 -10 -5 0
-10 5 -10 10 0 6 5 10 10 10 6 0 10 -4 10 -10z m76 -26 c0 -13 -2 -22 -5 -19
-3 3 -6 17 -7 31 0 13 2 22 5 19 3 -3 6 -17 7 -31z m-636 16 c0 -5 -2 -10 -4
-10 -3 0 -8 5 -11 10 -3 6 -1 10 4 10 6 0 11 -4 11 -10z m678 -3 c8 -10 6 -13
-7 -13 -11 0 -17 6 -14 13 3 7 6 13 8 13 1 0 7 -6 13 -13z m-703 -7 c3 -5 0
-12 -6 -16 -7 -4 -9 -3 -5 4 4 7 -1 10 -14 9 -22 -1 -27 -13 -7 -20 9 -4 9 -6
0 -6 -14 -1 -26 16 -19 27 6 11 45 12 51 2z m185 0 c-8 -5 -19 -10 -25 -10 -5
0 -3 5 5 10 8 5 20 10 25 10 6 0 3 -5 -5 -10z m40 0 c0 -5 -2 -10 -4 -10 -3 0
-8 5 -11 10 -3 6 -1 10 4 10 6 0 11 -4 11 -10z m96 -2 c4 -7 3 -8 -4 -4 -7 4
-12 3 -12 -3 0 -5 6 -12 13 -14 9 -4 9 -6 0 -6 -15 -1 -26 16 -18 29 8 13 12
13 21 -2z m216 -7 c-5 -13 -3 -14 9 -4 12 10 15 8 15 -6 0 -12 -5 -17 -15 -13
-8 3 -12 1 -8 -5 3 -5 -1 -10 -9 -10 -10 0 -11 4 -5 10 6 6 7 17 1 27 -6 12
-5 17 5 17 8 0 11 -7 7 -16z m95 13 c-3 -3 -12 -4 -19 -1 -8 3 -5 6 6 6 11 1
17 -2 13 -5z m118 -4 c-3 -5 -12 -10 -18 -10 -7 0 -6 4 3 10 19 12 23 12 15 0z
m48 -15 c-7 -21 -12 -19 -10 4 0 11 5 18 9 15 4 -3 5 -11 1 -19z m-883 -5 c0
-5 -4 -10 -10 -10 -5 0 -10 5 -10 10 0 6 5 10 10 10 6 0 10 -4 10 -10z m145
-6 c14 -9 22 -20 19 -25 -3 -5 4 -9 15 -9 24 0 36 -16 20 -26 -8 -4 -9 -3 -5
4 5 8 -1 12 -14 12 -13 0 -19 -4 -14 -12 4 -6 3 -8 -4 -5 -5 4 -9 15 -8 25 2
9 -8 25 -23 34 -14 10 -22 18 -18 18 4 0 19 -7 32 -16z m45 4 c0 -11 -12 -10
-30 2 -12 7 -10 9 8 7 12 0 22 -5 22 -9z m100 2 c0 -5 -4 -10 -10 -10 -5 0
-10 5 -10 10 0 6 5 10 10 10 6 0 10 -4 10 -10z m55 -8 c-3 -3 -11 0 -18 7 -9
10 -8 11 6 5 10 -3 15 -9 12 -12z m230 8 c3 -6 -1 -7 -9 -4 -18 7 -21 14 -7
14 6 0 13 -4 16 -10z m146 -7 c13 -16 12 -17 -3 -4 -10 7 -18 15 -18 17 0 8 8
3 21 -13z m-594 -35 c2 -17 0 -19 -7 -8 -5 8 -6 18 -3 23 3 5 -4 6 -15 3 -11
-4 -23 -2 -27 3 -4 7 1 8 11 4 12 -5 15 -3 9 6 -6 10 -3 11 12 3 10 -6 19 -21
20 -34z m103 37 c0 -2 -10 -9 -22 -15 -22 -11 -22 -10 -4 4 21 17 26 19 26 11z
m615 -5 c3 -6 -1 -7 -9 -4 -18 7 -21 14 -7 14 6 0 13 -4 16 -10z m-920 -20
c-3 -5 3 -11 12 -14 15 -4 15 -5 -1 -3 -11 1 -20 10 -22 20 -1 9 2 15 7 11 5
-3 7 -9 4 -14z m105 10 c0 -5 -4 -10 -10 -10 -5 0 -10 5 -10 10 0 6 5 10 10
10 6 0 10 -4 10 -10z m233 -13 c-5 -8 -8 -7 -11 1 -2 7 -9 9 -14 6 -7 -4 -8
-2 -4 4 4 6 13 9 21 6 8 -4 12 -11 8 -17z m87 -29 c0 -5 -4 -8 -10 -8 -5 0 -9
3 -8 8 1 4 -4 18 -11 32 l-12 25 20 -25 c11 -14 21 -28 21 -32z m14 40 c-5 -8
-1 -9 12 -4 14 5 16 4 7 -5 -13 -13 -37 -3 -28 12 4 5 8 9 11 9 3 0 2 -5 -2
-12z m109 -9 c-4 -15 -8 -17 -14 -8 -6 11 4 28 18 29 0 0 -1 -9 -4 -21z m80 0
c-4 -15 -8 -17 -14 -8 -6 11 4 28 18 29 0 0 -1 -9 -4 -21z m272 -7 c-3 -3 1
-12 8 -21 11 -14 10 -14 -6 -2 -9 8 -15 16 -12 19 3 3 -1 12 -8 21 -11 14 -10
14 6 2 9 -8 15 -16 12 -19z m-520 8 c3 -6 -1 -7 -9 -4 -18 7 -21 14 -7 14 6 0
13 -4 16 -10z m607 -4 c10 6 11 4 0 -7 -10 -11 -15 -10 -30 6 -15 17 -15 18 0
6 9 -7 23 -9 30 -5z m-915 -2 c-3 -3 -12 -4 -19 -1 -8 3 -5 6 6 6 11 1 17 -2
13 -5z m73 -4 c0 -5 -7 -7 -15 -4 -8 4 -15 8 -15 10 0 2 7 4 15 4 8 0 15 -4
15 -10z m634 -2 c-3 -5 -10 -6 -15 -3 -5 4 -9 1 -9 -6 0 -7 -3 -10 -6 -6 -9 9
3 24 20 24 8 0 13 -4 10 -9z m95 -11 c0 -9 -2 -8 -6 1 -2 6 -10 9 -15 6 -7 -4
-8 -2 -4 5 9 13 26 5 25 -12z m64 5 c15 -16 15 -19 2 -19 -8 0 -13 3 -10 5 3
3 0 11 -6 19 -17 20 -5 16 14 -5z m87 4 c0 -2 -8 -10 -17 -17 -16 -13 -17 -12
-4 4 13 16 21 21 21 13z m-939 -27 c5 -8 9 -18 8 -24 0 -5 -5 -1 -12 10 -7 11
-21 22 -31 23 -17 3 -18 2 -7 -12 8 -9 9 -16 3 -16 -12 0 -23 25 -15 34 10 10
44 0 54 -15z m45 9 c4 -7 3 -8 -4 -4 -7 4 -12 2 -12 -5 0 -7 -3 -10 -6 -6 -6
5 3 27 11 27 2 0 7 -5 11 -12z m54 2 c0 -5 -8 -6 -17 -3 -16 6 -17 5 -3 -13
14 -18 14 -18 -2 -5 -10 7 -15 17 -12 22 7 12 34 11 34 -1z m296 -2 c4 -7 3
-8 -4 -4 -7 4 -12 0 -12 -10 0 -10 -3 -15 -6 -11 -7 6 2 37 10 37 3 0 8 -5 12
-12z m183 -10 c-11 -21 -15 -22 -25 -6 -5 7 -3 8 6 3 9 -6 12 -4 8 7 -4 8 0
15 7 15 10 0 11 -5 4 -19z m131 18 c0 -2 -8 -10 -17 -17 -16 -13 -17 -12 -4 4
13 16 21 21 21 13z m-490 -10 c0 -2 -8 -10 -17 -17 -16 -13 -17 -12 -4 4 13
16 21 21 21 13z m90 -18 c0 -6 -6 -5 -15 2 -8 7 -15 14 -15 16 0 2 7 1 15 -2
8 -4 15 -11 15 -16z m181 4 c-7 -2 -18 1 -23 6 -8 8 -4 9 13 5 13 -4 18 -8 10
-11z m-557 -8 c9 -24 2 -26 -12 -4 -7 11 -8 20 -3 20 5 0 12 -7 15 -16z m192
1 c-8 -7 -12 -16 -8 -20 4 -5 2 -5 -5 -1 -16 9 -6 33 14 33 14 0 14 -1 -1 -12z
m118 0 c-4 -8 -8 -15 -10 -15 -2 0 -4 7 -4 15 0 8 4 15 10 15 5 0 7 -7 4 -15z
m369 -3 c14 -15 15 -19 2 -19 -8 0 -11 5 -8 10 4 6 0 8 -10 4 -11 -4 -14 -2
-10 9 7 18 7 18 26 -4z m-680 -42 c-3 -3 -10 3 -17 12 -7 10 -15 16 -18 13 -2
-3 -5 2 -5 11 0 11 6 9 22 -8 12 -13 20 -25 18 -28z m243 41 c-4 -5 0 -12 6
-15 7 -2 3 -4 -9 -2 -12 1 -26 6 -30 11 -5 4 -2 5 5 1 6 -4 12 -2 12 3 0 6 5
11 11 11 5 0 8 -4 5 -9z m145 -14 c-10 -9 -11 -8 -5 6 3 10 9 15 12 12 3 -3 0
-11 -7 -18z m-243 -5 c2 -7 8 -10 12 -7 5 3 14 -5 20 -17 10 -21 10 -21 -3 -6
-8 10 -17 15 -20 11 -4 -3 -9 1 -12 9 -4 9 -14 14 -25 11 -10 -3 -20 -1 -23 4
-3 5 6 8 21 7 14 0 28 -6 30 -12z m138 -6 c0 -14 -5 -21 -9 -17 -4 4 -5 15 -1
24 9 24 12 21 10 -7z m98 -15 c-5 -6 -34 20 -34 30 0 5 8 1 18 -8 10 -10 17
-20 16 -22z m506 35 c0 -2 -7 -7 -16 -10 -8 -3 -12 -2 -9 4 6 10 25 14 25 6z
m37 -19 c1 -11 1 -18 0 -16 -2 2 -8 11 -15 20 -9 12 -9 16 1 16 7 0 14 -9 14
-20z m-595 -9 c-9 -9 -15 -9 -24 1 -11 10 -10 11 5 6 10 -5 17 -2 17 6 0 7 3
9 7 6 4 -4 1 -13 -5 -19z m294 3 c0 -14 -4 -17 -16 -12 -8 5 -21 6 -27 4 -7
-3 -13 0 -13 6 0 5 9 8 20 6 11 -2 22 0 25 6 9 13 11 11 11 -10z m224 16 c0
-2 -8 -11 -18 -20 -15 -14 -19 -15 -19 -2 0 8 4 12 8 9 4 -2 10 0 14 6 6 10
15 14 15 7z m141 -14 c13 -16 12 -17 -3 -4 -10 7 -18 15 -18 17 0 8 8 3 21
-13z m-932 -3 c-6 -5 -18 -6 -26 -3 -19 8 -16 11 13 11 17 0 22 -3 13 -8z
m146 0 c-3 -5 -1 -10 6 -10 7 0 10 -3 6 -6 -9 -9 -28 6 -22 17 4 5 8 9 11 9 3
0 2 -4 -1 -10z m225 6 c0 -2 -7 -7 -16 -10 -8 -3 -12 -2 -9 4 6 10 25 14 25 6z
m56 -32 c1 -9 -1 -13 -4 -9 -4 4 -7 10 -7 13 0 4 -4 14 -9 22 -7 12 -6 13 4 3
8 -7 15 -20 16 -29z m415 19 c12 -16 12 -17 -2 -6 -9 7 -20 9 -24 5 -5 -4 -5
-1 -1 6 9 16 11 15 27 -5z m148 14 c-2 -1 -13 -9 -24 -17 -19 -14 -19 -14 -6
3 7 9 18 17 24 17 6 0 8 -1 6 -3z m-921 -32 c-3 -3 -9 2 -12 12 -6 14 -5 15 5
6 7 -7 10 -15 7 -18z m-145 -13 c-2 -15 2 -20 12 -16 8 4 15 2 15 -4 0 -6 -8
-9 -17 -7 -12 1 -17 10 -16 24 2 12 -1 20 -6 16 -5 -3 -12 -1 -15 4 -4 5 2 8
11 6 12 -1 17 -10 16 -23z m53 16 c4 -7 3 -8 -4 -4 -7 4 -12 2 -12 -5 0 -7 -3
-10 -6 -6 -6 5 3 27 11 27 2 0 7 -5 11 -12z m57 5 c-7 -2 -19 -2 -25 0 -7 3
-2 5 12 5 14 0 19 -2 13 -5z m251 -5 c-5 -8 -1 -9 12 -5 18 7 18 6 2 -6 -10
-8 -15 -17 -11 -21 4 -4 -1 -4 -11 0 -14 5 -15 9 -4 15 7 5 9 9 5 9 -9 0 1 20
9 20 3 0 2 -5 -2 -12z m111 -10 c5 4 5 1 1 -5 -11 -20 -23 -15 -29 10 -5 20
-5 20 7 5 7 -10 17 -14 21 -10z m94 -14 c-14 -13 -16 -13 -16 0 0 8 5 12 10 9
7 -4 8 1 3 13 -6 15 -5 17 5 6 11 -10 10 -15 -2 -28z m421 28 c0 -5 -7 -9 -15
-9 -8 0 -12 4 -9 9 3 4 9 8 15 8 5 0 9 -4 9 -8z m-808 -16 c7 4 8 2 4 -4 -11
-18 -26 -14 -25 6 0 10 3 12 6 4 2 -6 10 -9 15 -6z m92 -2 c3 -8 2 -12 -4 -9
-6 3 -10 10 -10 16 0 14 7 11 14 -7z m449 1 c-3 -9 -8 -14 -10 -11 -3 3 -2 9
2 15 9 16 15 13 8 -4z m80 0 c-3 -9 -8 -14 -10 -11 -3 3 -2 9 2 15 9 16 15 13
8 -4z m-719 -10 c-4 -8 -8 -15 -10 -15 -2 0 -4 7 -4 15 0 8 4 15 10 15 5 0 7
-7 4 -15z m57 -2 c13 -17 13 -17 -6 -3 -11 8 -22 16 -24 17 -2 2 0 3 6 3 6 0
17 -8 24 -17z m102 0 c-3 -7 -6 -13 -8 -13 -2 0 -5 6 -8 13 -3 8 1 14 8 14 7
0 11 -6 8 -14z m530 2 c-3 -9 -8 -14 -10 -11 -3 3 -2 9 2 15 9 16 15 13 8 -4z
m71 -1 c3 -8 2 -12 -4 -9 -6 3 -10 10 -10 16 0 14 7 11 14 -7z m65 13 c-2 -1
-13 -9 -24 -17 -19 -14 -19 -14 -6 3 7 9 18 17 24 17 6 0 8 -1 6 -3z m-485
-29 c-5 -7 -2 -9 8 -6 8 4 15 0 15 -8 0 -19 -30 -1 -33 20 -1 9 2 14 7 10 5
-3 6 -10 3 -16z m-441 -1 c3 -8 2 -20 -3 -26 -5 -9 -7 -4 -7 13 0 29 2 32 10
13z m127 3 c0 -5 -4 -10 -10 -10 -5 0 -10 5 -10 10 0 6 5 10 10 10 6 0 10 -4
10 -10z m200 0 c0 -5 -4 -10 -10 -10 -5 0 -10 5 -10 10 0 6 5 10 10 10 6 0 10
-4 10 -10z m765 0 c-3 -5 -12 -10 -18 -10 -7 0 -6 4 3 10 19 12 23 12 15 0z
m-1025 -15 c0 -8 -4 -15 -10 -15 -5 0 -7 7 -4 15 4 8 8 15 10 15 2 0 4 -7 4
-15z m80 0 c0 -8 -4 -15 -10 -15 -5 0 -7 7 -4 15 4 8 8 15 10 15 2 0 4 -7 4
-15z m386 3 c5 4 3 0 -4 -10 -10 -13 -10 -17 0 -21 7 -3 3 -4 -9 -4 -18 1 -20
4 -10 16 10 12 9 14 -4 9 -9 -4 -16 -1 -16 7 0 10 5 11 17 5 10 -5 21 -6 26
-2z m29 3 c3 -5 2 -12 -3 -15 -5 -3 -9 1 -9 9 0 17 3 19 12 6z m55 -6 c-6 -8
-8 -20 -4 -27 5 -10 4 -10 -6 -1 -11 10 -11 15 0 28 7 8 15 15 17 15 3 0 0 -7
-7 -15z m90 11 c0 -2 -8 -10 -17 -17 -16 -13 -17 -12 -4 4 13 16 21 21 21 13z
m56 -8 c5 4 6 3 2 -2 -4 -5 -3 -14 2 -21 7 -8 5 -12 -5 -12 -8 0 -13 3 -10 5
3 3 -3 15 -12 26 -14 15 -14 18 -2 8 9 -6 20 -8 25 -4z m80 0 c5 4 6 3 2 -2
-4 -5 -3 -14 2 -21 7 -8 5 -12 -5 -12 -8 0 -13 3 -10 5 3 3 -3 15 -12 26 -14
15 -14 18 -2 8 9 -6 20 -8 25 -4z m144 8 c0 -2 -8 -10 -17 -17 -16 -13 -17
-12 -4 4 13 16 21 21 21 13z m135 -5 c3 -5 2 -12 -3 -15 -5 -3 -9 1 -9 9 0 17
3 19 12 6z m-1020 -11 c3 -5 1 -10 -4 -10 -6 0 -11 5 -11 10 0 6 2 10 4 10 3
0 8 -4 11 -10z m107 3 c-6 -2 -10 -8 -7 -13 3 -4 -2 -10 -10 -14 -8 -3 -17 0
-21 6 -4 6 -3 8 3 5 6 -4 13 0 17 8 3 8 11 15 18 14 10 0 10 -2 0 -6z m54 -5
c5 -7 3 -8 -6 -3 -10 6 -12 4 -6 -11 5 -14 4 -16 -5 -7 -6 6 -8 16 -5 22 9 14
13 14 22 -1z m137 -2 c3 -8 0 -17 -7 -19 -10 -4 -12 1 -9 14 6 23 9 24 16 5z
m400 -4 c15 -16 15 -19 2 -19 -8 0 -13 3 -10 5 3 3 0 11 -6 19 -17 20 -5 16
14 -5z m88 5 c-6 -8 -7 -18 -3 -22 4 -5 1 -5 -6 -1 -10 6 -10 11 -1 22 6 8 14
14 16 14 3 0 0 -6 -6 -13z m33 4 c3 -5 -2 -15 -12 -22 -15 -12 -16 -12 -5 2 7
9 10 19 6 22 -3 4 -4 7 0 7 3 0 8 -4 11 -9z m217 -14 c-10 -9 -11 -8 -5 6 3
10 9 15 12 12 3 -3 0 -11 -7 -18z m-1097 -3 c3 -8 2 -12 -4 -9 -6 3 -10 10
-10 16 0 14 7 11 14 -7z m307 -7 c-10 -9 -11 -8 -5 6 3 10 9 15 12 12 3 -3 0
-11 -7 -18z m382 10 c3 -7 -3 -13 -14 -13 -13 0 -15 3 -7 13 6 7 12 13 13 13
2 0 5 -6 8 -13z m-640 -14 c-7 -2 -19 -2 -25 0 -7 3 -2 5 12 5 14 0 19 -2 13
-5z m37 -14 c0 -5 -4 -9 -8 -9 -5 0 -9 7 -9 15 0 8 4 12 9 9 4 -3 8 -9 8 -15z
m44 6 c11 -8 16 -15 10 -15 -5 0 -18 7 -28 15 -11 8 -16 15 -10 15 5 0 18 -7
28 -15z m118 8 c-6 -2 -10 -8 -8 -12 3 -4 -5 -8 -16 -8 -20 -2 -20 -1 -2 12
11 8 24 14 29 14 6 0 4 -3 -3 -6z m-302 -13 c0 -5 -4 -10 -10 -10 -5 0 -10 5
-10 10 0 6 5 10 10 10 6 0 10 -4 10 -10z m40 -2 c0 -4 -4 -8 -9 -8 -6 0 -12 4
-15 8 -3 5 1 9 9 9 8 0 15 -4 15 -9z m200 8 c0 -2 -7 -7 -16 -10 -8 -3 -12 -2
-9 4 6 10 25 14 25 6z m104 -4 c2 -4 -4 -8 -14 -8 -10 0 -16 4 -14 8 3 4 9 8
14 8 5 0 11 -4 14 -8z m36 -2 c0 -5 -5 -10 -11 -10 -5 0 -7 5 -4 10 3 6 8 10
11 10 2 0 4 -4 4 -10z m84 -2 c-3 -4 -9 -8 -15 -8 -5 0 -9 4 -9 8 0 5 7 9 15
9 8 0 12 -4 9 -9z m151 2 c3 -5 1 -10 -4 -10 -6 0 -11 5 -11 10 0 6 2 10 4 10
3 0 8 -4 11 -10z m-454 -47 c-11 -16 -11 -15 -5 6 4 17 3 21 -6 16 -9 -6 -11
-4 -5 4 5 9 11 9 17 3 7 -7 6 -16 -1 -29z m82 6 c-8 -8 -13 -7 -18 2 -6 8 -4
10 5 4 10 -6 12 -4 6 11 -6 15 -5 17 5 7 9 -10 10 -16 2 -24z m174 6 c0 -22
-14 -18 -20 4 -3 13 0 18 7 15 7 -3 13 -11 13 -19z m81 0 c-6 -11 -12 -21 -12
-21 -1 -1 8 -12 19 -25 11 -13 13 -18 4 -11 -9 6 -18 10 -21 7 -3 -3 -4 7 -3
22 1 16 -2 33 -6 38 -5 7 -1 11 11 11 15 0 17 -4 8 -21z m80 8 c-12 -15 -22
-18 -14 -4 4 5 0 11 -6 14 -7 3 -3 4 9 4 17 -1 19 -4 11 -14z m77 9 c-3 -3 0
-11 6 -19 17 -20 5 -16 -14 5 -15 16 -15 19 -2 19 8 0 13 -3 10 -5z m45 -6
c-7 -7 -13 -7 -20 0 -6 6 -3 10 10 10 13 0 16 -4 10 -10z m50 9 c0 -1 -10 -10
-22 -21 -14 -12 -18 -13 -10 -3 6 9 10 18 7 21 -3 2 2 5 10 5 8 0 15 -1 15 -2z
m147 -18 c1 -11 1 -18 0 -16 -2 2 -8 11 -15 20 -9 12 -9 16 1 16 7 0 14 -9 14
-20z m-879 -12 c0 -14 -4 -25 -7 -25 -4 0 -7 11 -7 25 0 14 3 25 7 25 3 0 7
-11 7 -25z m42 16 c0 -5 -7 -11 -14 -14 -10 -4 -13 -1 -9 9 6 15 23 19 23 5z
m280 -6 c0 -8 -2 -15 -4 -15 -2 0 -6 7 -10 15 -3 8 -1 15 4 15 6 0 10 -7 10
-15z m773 0 c-3 -9 -8 -14 -10 -11 -3 3 -2 9 2 15 9 16 15 13 8 -4z m-343 1
c0 -2 -8 -10 -17 -17 -16 -13 -17 -12 -4 4 13 16 21 21 21 13z m460 0 c0 -2
-8 -10 -17 -17 -16 -13 -17 -12 -4 4 13 16 21 21 21 13z m-1094 -24 c1 -7 0
-8 -3 -2 -2 5 -9 10 -14 10 -6 0 -7 -5 -3 -12 4 -7 3 -8 -5 -4 -14 9 -4 29 12
23 6 -2 12 -9 13 -15z m79 8 c3 -6 -1 -7 -9 -4 -18 7 -21 14 -7 14 6 0 13 -4
16 -10z m81 -13 c1 -9 -2 -15 -7 -11 -5 3 -6 10 -3 16 5 8 1 9 -10 5 -11 -4
-15 -3 -11 4 10 14 28 6 31 -14z m-182 -26 c-5 -6 -34 20 -34 30 0 5 8 1 18
-8 10 -10 17 -20 16 -22z m676 35 c0 -2 -8 -10 -17 -17 -16 -13 -17 -12 -4 4
13 16 21 21 21 13z m147 -11 c0 -8 -4 -12 -9 -9 -4 3 -8 9 -8 15 0 5 4 9 8 9
5 0 9 -7 9 -15z m-952 -13 c-3 -3 -11 0 -18 7 -9 10 -8 11 6 5 10 -3 15 -9 12
-12z m252 -4 c-3 -8 -6 -5 -6 6 -1 11 2 17 5 13 3 -3 4 -12 1 -19z m133 7 c0
-12 -19 -12 -23 0 -4 9 -1 12 9 8 7 -3 14 -7 14 -8z m92 1 c10 6 11 5 1 -8 -7
-8 -11 -17 -8 -20 3 -2 -1 -5 -9 -5 -8 0 -12 6 -8 15 3 9 1 13 -5 9 -5 -3 -10
0 -10 8 0 11 4 12 13 4 7 -6 19 -7 26 -3z m251 -1 c-3 -9 -8 -14 -10 -11 -3 3
-2 9 2 15 9 16 15 13 8 -4z m164 0 c0 -8 -4 -12 -9 -9 -5 3 -6 10 -3 15 9 13
12 11 12 -6z m256 0 c-3 -9 -8 -14 -10 -11 -3 3 -2 9 2 15 9 16 15 13 8 -4z
m-1075 -15 c-7 -10 -14 -18 -15 -16 -6 6 9 36 18 36 5 0 4 -9 -3 -20z m117 11
c-9 -8 -36 -10 -30 -2 2 4 11 8 20 8 8 0 13 -3 10 -6z m88 -11 c3 -11 1 -18
-4 -14 -5 3 -9 12 -9 20 0 20 7 17 13 -6z m568 3 c12 -16 12 -17 -2 -6 -9 7
-19 10 -22 6 -4 -3 -7 -1 -7 5 0 17 16 15 31 -5z m279 11 c0 -8 -19 -13 -24
-6 -3 5 1 9 9 9 8 0 15 -2 15 -3z m-1015 -24 c3 -5 1 -10 -4 -10 -6 0 -11 5
-11 10 0 6 2 10 4 10 3 0 8 -4 11 -10z m122 3 c-4 -3 -1 -13 6 -22 11 -14 10
-14 -5 -2 -21 15 -23 31 -6 31 6 0 8 -3 5 -7z m-161 -35 c-9 -12 -16 -19 -16
-15 0 11 24 47 28 42 2 -2 -3 -14 -12 -27z m79 22 c3 -6 -1 -7 -9 -4 -18 7
-21 14 -7 14 6 0 13 -4 16 -10z m221 -9 c-6 -10 -43 -7 -55 4 -3 4 7 4 22 1
16 -3 27 0 27 6 0 6 3 9 6 5 3 -3 3 -10 0 -16z m141 13 c-3 -3 -12 -4 -19 -1
-8 3 -5 6 6 6 11 1 17 -2 13 -5z m69 -16 c12 -14 13 -18 3 -10 -9 6 -18 10
-21 7 -2 -3 -5 2 -5 10 0 19 0 19 23 -7z m173 -5 c2 -1 -5 -1 -16 0 -11 0 -20
7 -20 14 0 10 4 10 16 1 9 -7 18 -13 20 -15z m142 10 c13 -16 12 -17 -3 -4
-10 7 -18 15 -18 17 0 8 8 3 21 -13z m152 2 c-3 -9 -8 -14 -10 -11 -3 3 -2 9
2 15 9 16 15 13 8 -4z m-1053 -5 c0 -5 -4 -10 -10 -10 -5 0 -10 5 -10 10 0 6
5 10 10 10 6 0 10 -4 10 -10z m50 0 c0 -5 -5 -10 -11 -10 -5 0 -7 5 -4 10 3 6
8 10 11 10 2 0 4 -4 4 -10z m163 -4 c4 -10 0 -12 -15 -8 -15 4 -17 7 -6 13 17
11 15 11 21 -5z m92 4 c-3 -5 -12 -10 -18 -10 -7 0 -6 4 3 10 19 12 23 12 15
0z m333 -2 c-2 -6 -10 -13 -16 -14 -7 -1 -8 0 -2 3 5 2 8 9 4 14 -3 5 0 9 6 9
7 0 10 -5 8 -12z m216 4 c2 -4 -5 -9 -17 -9 -17 -2 -19 0 -7 7 18 12 18 12 24
2z m-823 -33 c6 -13 7 -19 1 -15 -6 3 -13 0 -16 -6 -3 -7 -3 -2 0 11 5 17 3
21 -6 16 -9 -5 -11 -4 -6 3 10 16 14 15 27 -9z m63 9 c-5 -8 -2 -9 11 -4 15 5
16 4 5 -9 -10 -12 -15 -13 -21 -3 -7 12 -3 28 7 28 3 0 2 -5 -2 -12z m356 7
c0 -1 -10 -11 -23 -23 -21 -20 -23 -20 -23 -3 0 12 5 17 15 13 8 -3 12 -1 8 5
-3 5 0 10 8 10 8 0 15 -1 15 -2z m44 -35 c-6 -6 -10 -3 -10 10 0 13 4 16 10
10 7 -7 7 -13 0 -20z m82 4 c1 -9 0 -13 -4 -10 -3 4 -7 14 -8 22 -1 9 0 13 4
10 3 -4 7 -14 8 -22z m500 6 c0 -12 -4 -16 -9 -11 -5 5 -6 14 -3 20 10 15 12
14 12 -9z m-919 -5 c0 -8 -4 -12 -9 -9 -5 3 -6 10 -3 15 9 13 12 11 12 -6z
m180 1 c0 -8 -8 -11 -21 -8 -19 5 -19 6 0 13 10 4 19 8 20 8 0 1 1 -5 1 -13z
m293 10 c0 -2 -8 -10 -17 -17 -16 -13 -17 -12 -4 4 13 16 21 21 21 13z m86 -8
c4 -7 4 -10 -1 -6 -4 4 -15 2 -24 -5 -14 -11 -14 -10 -2 6 16 20 18 21 27 5z
m120 -10 l19 -23 -21 18 c-13 10 -29 15 -40 11 -16 -5 -16 -4 -4 5 21 15 24
14 46 -11z m-836 8 c0 -2 -9 -6 -20 -9 -11 -3 -18 -1 -14 4 5 9 34 13 34 5z
m204 -12 c3 -8 2 -12 -4 -9 -6 3 -10 10 -10 16 0 14 7 11 14 -7z m320 0 c3 -8
2 -12 -4 -9 -6 3 -10 10 -10 16 0 14 7 11 14 -7z m353 1 c0 -8 -4 -12 -9 -9
-5 3 -6 10 -3 15 9 13 12 11 12 -6z m-113 -3 c2 -4 -4 -8 -14 -8 -10 0 -16 4
-14 8 3 4 9 8 14 8 5 0 11 -4 14 -8z m491 -2 c3 -5 1 -10 -4 -10 -6 0 -11 5
-11 10 0 6 2 10 4 10 3 0 8 -4 11 -10z m-1225 -15 c-7 -8 -17 -15 -23 -15 -6
0 -2 7 9 15 25 19 30 19 14 0z m105 5 c-3 -5 -14 -10 -23 -9 -14 0 -13 2 3 9
27 11 27 11 20 0z m122 -5 c0 -8 -5 -11 -10 -8 -7 4 -8 -1 -3 -12 5 -15 4 -16
-9 -5 -16 13 -21 35 -6 25 5 -3 12 -1 16 5 9 14 12 13 12 -5z m133 0 c0 -2 -6
-5 -13 -8 -8 -3 -14 1 -14 8 0 7 6 11 14 8 7 -3 13 -6 13 -8z m166 -3 c-3 -3
0 -12 6 -21 10 -13 10 -14 -2 -4 -16 15 -23 46 -8 37 5 -3 7 -9 4 -12z m-581
-10 c-3 -3 -11 0 -18 7 -9 10 -8 11 6 5 10 -3 15 -9 12 -12z m95 3 c7 -9 8
-15 2 -15 -5 0 -12 7 -16 15 -3 8 -4 15 -2 15 2 0 9 -7 16 -15z m440 10 c0 -2
-6 -8 -13 -14 -10 -8 -14 -7 -14 2 0 8 6 14 14 14 7 0 13 -1 13 -2z m83 -13
c15 -16 15 -19 2 -19 -8 0 -13 3 -10 5 3 3 0 11 -6 19 -17 20 -5 16 14 -5z
m77 14 c0 -2 -8 -10 -17 -17 -16 -13 -17 -12 -4 4 13 16 21 21 21 13z m39 -10
c9 -11 9 -16 -1 -22 -7 -4 -10 -4 -6 1 4 4 3 14 -3 22 -6 7 -9 13 -6 13 2 0
10 -6 16 -14z m-309 -26 c-6 -11 -5 -22 3 -30 10 -12 9 -12 -5 -1 -10 7 -14
19 -11 28 5 12 3 14 -7 8 -8 -5 -11 -4 -7 2 3 5 13 10 21 10 11 0 12 -5 6 -17z
m351 3 c13 -16 12 -17 -3 -4 -17 13 -22 21 -14 21 2 0 10 -8 17 -17z m509 13
c0 -3 -4 -8 -10 -11 -5 -3 -10 -1 -10 4 0 6 5 11 10 11 6 0 10 -2 10 -4z
m-1225 -26 c0 -7 -7 -15 -15 -17 -13 -4 -13 -3 0 6 13 10 13 12 0 22 -13 9
-13 10 0 6 8 -2 15 -10 15 -17z m145 5 c5 3 14 -5 20 -17 9 -20 9 -21 -2 -7
-7 9 -17 16 -23 17 -5 0 -10 5 -11 12 -2 6 -1 7 3 0 2 -5 9 -8 13 -5z m276 -5
c0 -12 -4 -16 -9 -11 -5 5 -6 14 -3 20 10 15 12 14 12 -9z m80 -6 c1 -9 0 -13
-4 -10 -3 4 -7 14 -8 22 -1 9 0 13 4 10 3 -4 7 -14 8 -22z m304 23 c0 -2 -10
-12 -22 -23 l-23 -19 19 23 c18 21 26 27 26 19z m521 -14 c13 -16 12 -17 -3
-4 -10 7 -18 15 -18 17 0 8 8 3 21 -13z m-1221 -18 c0 -2 -7 -1 -17 2 -12 5
-14 3 -8 -8 5 -8 4 -11 0 -6 -5 4 -10 14 -11 22 -2 12 2 12 17 5 10 -6 19 -13
19 -15z m660 21 c0 -3 -4 -8 -10 -11 -5 -3 -10 -1 -10 4 0 6 5 11 10 11 6 0
10 -2 10 -4z m151 -13 c12 -16 12 -17 -2 -6 -9 7 -20 9 -24 5 -5 -4 -5 -1 -1
6 9 16 11 15 27 -5z m385 -9 c1 -9 0 -13 -4 -10 -3 4 -7 14 -8 22 -1 9 0 13 4
10 3 -4 7 -14 8 -22z m-1339 0 c-3 -3 -12 -4 -19 -1 -8 3 -5 6 6 6 11 1 17 -2
13 -5z m284 -14 c-5 -8 -7 -23 -6 -33 2 -9 0 -15 -5 -12 -5 3 -7 13 -5 23 1 9
-1 22 -6 27 -5 7 -1 11 11 11 13 0 16 -4 11 -16z m49 14 c0 -8 -19 -13 -24 -6
-3 5 1 9 9 9 8 0 15 -2 15 -3z m181 -11 c13 -16 12 -17 -3 -4 -10 7 -18 15
-18 17 0 8 8 3 21 -13z m86 -6 c1 -11 1 -18 0 -16 -2 2 -8 11 -15 20 -9 12 -9
16 1 16 7 0 14 -9 14 -20z m76 -2 c-7 -21 -12 -19 -10 4 0 11 5 18 9 15 4 -3
5 -11 1 -19z m42 7 c-3 -3 -11 0 -18 7 -9 10 -8 11 6 5 10 -3 15 -9 12 -12z
m585 8 c0 -5 -5 -10 -11 -10 -5 0 -7 5 -4 10 3 6 8 10 11 10 2 0 4 -4 4 -10z
m116 -5 c-1 -8 -5 -17 -8 -21 -5 -4 -4 16 1 34 3 9 9 -1 7 -13z m-1336 -14 c0
-5 -10 -11 -22 -14 -21 -5 -21 -5 -6 7 10 7 14 17 10 21 -4 5 -1 5 6 1 6 -4
12 -11 12 -15z m80 -1 c0 -5 -4 -10 -10 -10 -5 0 -10 5 -10 10 0 6 5 10 10 10
6 0 10 -4 10 -10z m177 -4 c0 -8 -6 -12 -15 -9 -11 5 -11 7 0 14 7 5 13 9 14
9 0 0 1 -6 1 -14z m503 8 c0 -8 -19 -13 -24 -6 -3 5 1 9 9 9 8 0 15 -2 15 -3z
m206 -6 c3 -4 -1 -5 -10 -4 -8 1 -18 5 -22 8 -3 4 1 5 10 4 8 -1 18 -5 22 -8z
m-646 -2 c0 -2 -8 -10 -17 -17 -16 -13 -17 -12 -4 4 13 16 21 21 21 13z m238
-21 c-3 -3 -9 2 -12 12 -6 14 -5 15 5 6 7 -7 10 -15 7 -18z m-525 -2 c-3 -7
-6 -13 -8 -13 -2 0 -5 6 -8 13 -3 8 1 14 8 14 7 0 11 -6 8 -14z m89 -1 c-4
-11 -1 -13 9 -7 8 5 11 4 6 0 -13 -15 -36 -14 -49 3 -12 16 -11 16 6 2 18 -13
19 -13 14 1 -4 9 -1 16 7 16 8 0 11 -7 7 -15z m318 4 c-7 -7 -13 -7 -20 0 -6
6 -3 10 10 10 13 0 16 -4 10 -10z m325 4 c-3 -5 -12 -10 -18 -10 -7 0 -6 4 3
10 19 12 23 12 15 0z m31 -14 c0 -14 -3 -23 -7 -20 -6 3 -6 22 0 42 3 10 7 -2
7 -22z m339 14 c3 -5 1 -10 -4 -10 -6 0 -11 5 -11 10 0 6 2 10 4 10 3 0 8 -4
11 -10z m45 6 c0 -3 -4 -8 -10 -11 -5 -3 -10 -1 -10 4 0 6 5 11 10 11 6 0 10
-2 10 -4z m-1306 -18 c-5 -7 -2 -9 8 -6 8 4 15 1 15 -7 0 -8 -7 -11 -15 -7
-11 4 -13 1 -7 -8 5 -8 4 -11 -3 -7 -5 4 -9 15 -7 25 5 23 4 22 11 22 3 0 2
-5 -2 -12z m56 -3 c-7 -9 -15 -13 -19 -10 -3 3 1 10 9 15 21 14 24 12 10 -5z
m403 0 c-3 -9 -8 -14 -10 -11 -3 3 -2 9 2 15 9 16 15 13 8 -4z m163 0 c-1 -8
-5 -17 -8 -21 -5 -4 -4 16 1 34 3 9 9 -1 7 -13z m457 0 c-3 -9 -8 -14 -10 -11
-3 3 -2 9 2 15 9 16 15 13 8 -4z m-542 -12 c12 -16 12 -17 -2 -6 -9 7 -19 10
-22 6 -4 -3 -7 -1 -7 5 0 17 16 15 31 -5z m-50 -10 c13 -16 12 -17 -3 -4 -10
7 -18 15 -18 17 0 8 8 3 21 -13z m-76 -3 c-3 -5 -12 -10 -18 -10 -7 0 -6 4 3
10 19 12 23 12 15 0z m905 4 c0 -8 -19 -13 -24 -6 -3 5 1 9 9 9 8 0 15 -2 15
-3z m145 -3 c-9 -8 -36 -10 -30 -2 2 4 11 8 20 8 8 0 13 -3 10 -6z m-1422 -16
c-3 -9 -8 -14 -10 -11 -3 3 -2 9 2 15 9 16 15 13 8 -4z m204 9 c-3 -3 -12 -4
-19 -1 -8 3 -5 6 6 6 11 1 17 -2 13 -5z m62 -8 c9 -10 8 -15 -2 -19 -8 -3 -13
3 -13 14 0 23 0 23 15 5z m180 -13 c2 -1 -5 -1 -16 0 -11 0 -20 7 -20 14 0 10
4 10 16 1 9 -7 18 -13 20 -15z m-499 7 c0 -5 -4 -10 -10 -10 -5 0 -10 5 -10
10 0 6 5 10 10 10 6 0 10 -4 10 -10z m100 -5 c0 -1 -9 -5 -19 -8 -13 -3 -18
-1 -14 9 4 10 33 10 33 -1z m77 8 c-4 -3 -3 -11 3 -17 6 -8 3 -12 -9 -12 -12
0 -17 6 -13 18 2 10 9 18 15 18 6 0 7 -3 4 -7z m198 -2 c3 -5 2 -12 -3 -15 -5
-3 -9 1 -9 9 0 17 3 19 12 6z m202 -9 c0 -10 -6 -19 -13 -19 -9 0 -9 5 -1 19
7 10 13 18 14 18 1 0 1 -8 0 -18z m78 8 c3 -5 1 -10 -4 -10 -6 0 -11 5 -11 10
0 6 2 10 4 10 3 0 8 -4 11 -10z m99 1 c-7 -8 -54 -9 -49 -1 2 3 15 6 29 6 14
0 23 -2 20 -5z m191 -1 c3 -6 -1 -7 -9 -4 -18 7 -21 14 -7 14 6 0 13 -4 16
-10z m160 0 c3 -6 -1 -7 -9 -4 -18 7 -21 14 -7 14 6 0 13 -4 16 -10z m291 -5
c-1 -8 -5 -17 -8 -21 -5 -4 -4 16 1 34 3 9 9 -1 7 -13z m-620 -10 c-1 -8 -5
-17 -8 -21 -5 -4 -4 16 1 34 3 9 9 -1 7 -13z m539 6 c3 -5 2 -12 -3 -15 -5 -3
-9 1 -9 9 0 17 3 19 12 6z m-1301 -13 c-5 -8 -1 -9 12 -4 14 5 16 4 7 -5 -13
-13 -37 -3 -28 12 4 5 8 9 11 9 3 0 2 -5 -2 -12z m205 -5 c-12 -14 -12 -16 2
-11 9 3 16 1 16 -6 0 -6 -8 -12 -17 -12 -10 0 -17 5 -16 11 2 14 16 35 23 35
3 0 -1 -8 -8 -17z m123 4 c-14 -16 -10 -39 8 -63 14 -18 14 -18 -6 -1 -11 9
-21 25 -21 35 0 17 14 42 24 42 3 0 1 -6 -5 -13z m134 -23 c1 -9 0 -13 -4 -10
-3 4 -7 14 -8 22 -1 9 0 13 4 10 3 -4 7 -14 8 -22z m169 6 c3 -6 -1 -7 -9 -4
-18 7 -21 14 -7 14 6 0 13 -4 16 -10z m591 -16 c1 -9 0 -13 -4 -10 -3 4 -7 14
-8 22 -1 9 0 13 4 10 3 -4 7 -14 8 -22z m-1261 6 c-3 -5 -1 -10 6 -10 7 0 10
-3 6 -6 -9 -9 -28 6 -22 17 4 5 8 9 11 9 3 0 2 -4 -1 -10z m160 -11 c-4 -5
-12 -9 -18 -8 -9 0 -8 2 1 6 6 2 9 10 6 15 -4 7 -2 8 5 4 6 -4 9 -12 6 -17z
m-75 1 c0 -5 -4 -10 -10 -10 -5 0 -10 5 -10 10 0 6 5 10 10 10 6 0 10 -4 10
-10z m118 -7 c-6 -7 -12 -13 -13 -13 -2 0 -5 6 -8 13 -3 7 3 13 14 13 13 0 15
-3 7 -13z m207 7 c-3 -5 -12 -10 -18 -10 -7 0 -6 4 3 10 19 12 23 12 15 0z
m149 2 c3 -5 -1 -9 -9 -9 -8 0 -12 4 -9 9 3 4 7 8 9 8 2 0 6 -4 9 -8z m43 -9
c0 -9 -4 -10 -14 -2 -7 6 -13 12 -13 14 0 1 6 2 13 2 8 0 14 -6 14 -14z m208
7 c-3 -5 -12 -10 -18 -10 -7 0 -6 4 3 10 19 12 23 12 15 0z m419 2 c3 -5 -1
-9 -9 -9 -8 0 -12 4 -9 9 3 4 7 8 9 8 2 0 6 -4 9 -8z m72 -7 c-1 -8 -5 -17 -8
-21 -5 -4 -4 16 1 34 3 9 9 -1 7 -13z m-814 -9 c10 6 11 4 0 -7 -10 -11 -15
-10 -30 6 -15 17 -15 18 0 6 9 -7 23 -9 30 -5z m-52 0 c0 -2 -8 -10 -17 -17
-16 -13 -17 -12 -4 4 13 16 21 21 21 13z m730 -2 c0 -8 -19 -13 -24 -6 -3 5 1
9 9 9 8 0 15 -2 15 -3z m-1030 -19 c0 -2 -6 -8 -13 -14 -10 -8 -14 -7 -14 2 0
8 6 14 14 14 7 0 13 -1 13 -2z m116 -7 c3 -4 -1 -5 -10 -4 -8 1 -18 5 -22 8
-3 4 1 5 10 4 8 -1 18 -5 22 -8z m351 -3 c0 -8 -4 -12 -9 -9 -5 3 -6 10 -3 15
9 13 12 11 12 -6z m47 3 c-3 -4 -9 -8 -15 -8 -5 0 -9 4 -9 8 0 5 7 9 15 9 8 0
12 -4 9 -9z m33 -3 c0 -8 -4 -12 -9 -9 -5 3 -6 10 -3 15 9 13 12 11 12 -6z
m400 -10 c0 -8 -4 -12 -9 -9 -5 3 -6 10 -3 15 9 13 12 11 12 -6z m-997 -26 c0
-5 -5 -9 -12 -9 -6 0 -8 3 -5 7 4 3 1 13 -6 22 -11 14 -10 14 6 2 9 -7 17 -17
17 -22z m120 21 c0 -5 -2 -10 -4 -10 -3 0 -8 5 -11 10 -3 6 -1 10 4 10 6 0 11
-4 11 -10z m120 6 c0 -3 -4 -8 -10 -11 -5 -3 -10 -1 -10 4 0 6 5 11 10 11 6 0
10 -2 10 -4z m104 -8 c-4 -5 -9 -7 -12 -4 -3 3 -12 0 -21 -7 -14 -10 -14 -10
-4 4 13 16 46 23 37 7z m129 -8 c10 -12 9 -12 -4 -2 -9 6 -18 9 -21 6 -3 -3
-9 -1 -12 4 -9 15 22 8 37 -8z m783 5 c-1 -8 -5 -17 -8 -21 -5 -4 -4 16 1 34
3 9 9 -1 7 -13z m44 5 c0 -5 -5 -10 -11 -10 -5 0 -7 5 -4 10 3 6 8 10 11 10 2
0 4 -4 4 -10z m-1385 -10 c3 -6 -1 -7 -9 -4 -18 7 -21 14 -7 14 6 0 13 -4 16
-10z m181 -2 c4 -7 3 -8 -5 -4 -6 4 -20 2 -29 -6 -15 -12 -16 -11 -3 5 16 20
27 22 37 5z m579 3 c3 -5 2 -12 -3 -15 -5 -3 -9 1 -9 9 0 17 3 19 12 6z m420
0 c3 -5 2 -12 -3 -15 -5 -3 -9 1 -9 9 0 17 3 19 12 6z m-941 -9 c3 -5 -1 -9
-9 -9 -8 0 -12 4 -9 9 3 4 7 8 9 8 2 0 6 -4 9 -8z m124 -11 c-7 -9 -13 -18
-15 -20 -1 -2 -1 5 0 16 0 11 7 20 14 20 10 0 10 -4 1 -16z m260 -16 c-3 -3
-9 2 -12 12 -6 14 -5 15 5 6 7 -7 10 -15 7 -18z m-561 -5 c3 -9 1 -11 -4 -5
-11 14 -46 13 -64 -2 -12 -10 -15 -9 -15 5 0 23 77 24 83 2z m333 16 c0 -2 -8
-10 -17 -17 -16 -13 -17 -12 -4 4 13 16 21 21 21 13z m101 -13 c13 -16 12 -17
-3 -4 -10 7 -18 15 -18 17 0 8 8 3 21 -13z m68 14 c-2 -1 -13 -9 -24 -17 -19
-14 -19 -14 -6 3 7 9 18 17 24 17 6 0 8 -1 6 -3z m36 -6 c3 -5 2 -12 -3 -15
-5 -3 -9 1 -9 9 0 17 3 19 12 6z m125 3 c0 -8 -19 -13 -24 -6 -3 5 1 9 9 9 8
0 15 -2 15 -3z m-556 -23 c4 -5 -3 -7 -14 -4 -23 6 -26 13 -6 13 8 0 17 -4 20
-9z m511 -9 c-3 -3 -11 0 -18 7 -9 10 -8 11 6 5 10 -3 15 -9 12 -12z m541 -8
c1 -9 0 -13 -4 -10 -3 4 -7 14 -8 22 -1 9 0 13 4 10 3 -4 7 -14 8 -22z m100
14 c3 -4 -1 -5 -10 -4 -8 1 -18 5 -22 8 -3 4 1 5 10 4 8 -1 18 -5 22 -8z
m-1282 -28 c-6 -6 -10 -3 -10 10 0 13 4 16 10 10 7 -7 7 -13 0 -20z m64 5 c-3
-3 -9 2 -12 12 -6 14 -5 15 5 6 7 -7 10 -15 7 -18z m154 13 c-13 -13 -64 -20
-56 -7 2 4 13 6 24 4 11 -2 22 0 25 6 4 5 9 9 13 9 3 0 1 -5 -6 -12z m584 -8
c0 -12 -4 -16 -9 -11 -5 5 -6 14 -3 20 10 15 12 14 12 -9z m-682 1 c3 -5 -2
-15 -12 -22 -15 -12 -16 -12 -5 2 7 9 10 19 6 22 -3 4 -4 7 0 7 3 0 8 -4 11
-9z m312 2 c-2 -3 -6 -3 -9 -1 -3 2 -15 -6 -28 -17 l-24 -20 18 21 c9 11 24
21 32 21 8 0 13 -2 11 -4z m78 -1 c3 -5 -1 -9 -9 -9 -8 0 -12 4 -9 9 3 4 7 8
9 8 2 0 6 -4 9 -8z m256 -2 c0 -5 -5 -10 -11 -10 -5 0 -7 5 -4 10 3 6 8 10 11
10 2 0 4 -4 4 -10z m890 6 c0 -2 -8 -10 -17 -17 -16 -13 -17 -12 -4 4 13 16
21 21 21 13z m-1329 -23 c13 -16 12 -17 -3 -4 -10 7 -18 15 -18 17 0 8 8 3 21
-13z m-77 -1 c2 -4 -4 -8 -14 -8 -10 0 -16 4 -14 8 3 4 9 8 14 8 5 0 11 -4 14
-8z m776 4 c0 -3 -4 -8 -10 -11 -5 -3 -10 -1 -10 4 0 6 5 11 10 11 6 0 10 -2
10 -4z m80 -2 c0 -8 -19 -13 -24 -6 -3 5 1 9 9 9 8 0 15 -2 15 -3z m50 0 c0
-8 -19 -13 -24 -6 -3 5 1 9 9 9 8 0 15 -2 15 -3z m74 -2 c3 -5 -1 -9 -9 -9 -8
0 -12 4 -9 9 3 4 7 8 9 8 2 0 6 -4 9 -8z m-1208 -21 c0 -16 -3 -17 -14 -9 -12
10 -7 19 13 28 1 0 1 -9 1 -19z m152 2 c-9 -10 -14 -26 -13 -36 2 -11 1 -16
-2 -13 -4 3 -13 0 -22 -6 -10 -8 -9 -4 3 10 11 12 15 22 11 22 -4 0 0 9 10 20
10 11 20 20 23 20 3 0 -2 -8 -10 -17z m-208 -3 c0 -5 -2 -10 -4 -10 -3 0 -8 5
-11 10 -3 6 -1 10 4 10 6 0 11 -4 11 -10z m1216 -5 c-1 -8 -5 -17 -8 -21 -5
-4 -4 16 1 34 3 9 9 -1 7 -13z m-976 1 c0 -2 -8 -10 -17 -17 -16 -13 -17 -12
-4 4 13 16 21 21 21 13z m-283 -12 c-3 -3 -2 -17 3 -30 5 -13 7 -24 4 -24 -2
0 -8 10 -13 23 -8 22 -6 37 6 37 4 0 4 -3 0 -6z m444 -7 c-6 -8 -8 -16 -5 -19
3 -3 1 -9 -4 -12 -6 -3 -9 0 -8 6 2 16 15 38 23 38 3 0 0 -6 -6 -13z m579 3
c0 -5 -2 -10 -4 -10 -3 0 -8 5 -11 10 -3 6 -1 10 4 10 6 0 11 -4 11 -10z m37
-12 c2 -17 0 -19 -7 -8 -5 8 -6 18 -4 22 8 12 10 10 11 -14z m-926 -15 c13
-16 12 -17 -3 -4 -10 7 -18 15 -18 17 0 8 8 3 21 -13z m385 -9 c1 -9 0 -13 -4
-10 -3 4 -7 14 -8 22 -1 9 0 13 4 10 3 -4 7 -14 8 -22z m138 18 c3 -5 -1 -9
-9 -9 -8 0 -12 4 -9 9 3 4 7 8 9 8 2 0 6 -4 9 -8z m546 2 c0 -8 -19 -13 -24
-6 -3 5 1 9 9 9 8 0 15 -2 15 -3z m-1155 -24 c-3 -5 -12 -10 -18 -10 -7 0 -6
4 3 10 19 12 23 12 15 0z m87 -15 c3 3 13 -5 24 -17 19 -23 19 -23 -2 -5 -11
9 -23 15 -26 12 -3 -3 -13 5 -24 17 -19 23 -19 23 2 5 11 -9 23 -15 26 -12z
m352 17 c3 -5 -1 -9 -9 -9 -8 0 -15 4 -15 9 0 4 4 8 9 8 6 0 12 -4 15 -8z
m536 4 c0 -3 -4 -8 -10 -11 -5 -3 -10 -1 -10 4 0 6 5 11 10 11 6 0 10 -2 10
-4z m76 -22 c1 -9 0 -13 -4 -10 -3 4 -7 14 -8 22 -1 9 0 13 4 10 3 -4 7 -14 8
-22z m117 1 c-7 -21 -12 -19 -10 4 0 11 5 18 9 15 4 -3 5 -11 1 -19z m-973 12
c0 -2 -8 -11 -18 -20 -15 -14 -19 -15 -19 -2 0 8 4 12 8 9 4 -2 10 0 14 6 6
10 15 14 15 7z m-255 -17 c3 -5 1 -10 -4 -10 -6 0 -11 5 -11 10 0 6 2 10 4 10
3 0 8 -4 11 -10z m106 -7 c13 -16 12 -17 -3 -4 -15 11 -21 11 -35 0 -16 -13
-17 -12 -4 4 7 9 17 17 21 17 4 0 14 -8 21 -17z m313 6 c3 -2 -10 -5 -29 -5
-18 0 -32 3 -30 7 5 7 52 6 59 -2z m187 -6 c13 -16 12 -17 -3 -4 -10 7 -18 15
-18 17 0 8 8 3 21 -13z m139 13 c0 -2 -8 -10 -17 -17 -16 -13 -17 -12 -4 4 13
16 21 21 21 13z m240 -2 c0 -8 -19 -13 -24 -6 -3 5 1 9 9 9 8 0 15 -2 15 -3z
m-956 -54 c-6 -6 -10 -3 -10 10 0 13 4 16 10 10 7 -7 7 -13 0 -20z m127 13
c13 -16 12 -17 -3 -4 -10 7 -18 15 -18 17 0 8 8 3 21 -13z m276 4 c0 -8 -6
-14 -14 -14 -9 0 -10 4 -2 14 6 7 12 13 14 13 1 0 2 -6 2 -13z m498 4 c3 -5 2
-12 -3 -15 -5 -3 -9 1 -9 9 0 17 3 19 12 6z m-701 -17 c3 -8 2 -12 -4 -9 -6 3
-10 10 -10 16 0 14 7 11 14 -7z m381 7 c3 -5 2 -12 -3 -15 -5 -3 -9 1 -9 9 0
17 3 19 12 6z m116 -14 c-10 -9 -11 -8 -5 6 3 10 9 15 12 12 3 -3 0 -11 -7
-18z m364 14 c3 -5 2 -12 -3 -15 -5 -3 -9 1 -9 9 0 17 3 19 12 6z m140 -9 c-3
-3 -11 0 -18 7 -9 10 -8 11 6 5 10 -3 15 -9 12 -12z m-1140 -10 c-3 -3 0 -11
6 -19 17 -20 5 -16 -14 5 -15 16 -15 19 -2 19 8 0 13 -3 10 -5z m51 -4 c3 -4
-1 -5 -10 -4 -8 1 -18 5 -22 8 -3 4 1 5 10 4 8 -1 18 -5 22 -8z m388 4 c3 -5
-1 -9 -9 -9 -8 0 -12 4 -9 9 3 4 7 8 9 8 2 0 6 -4 9 -8z m426 -2 c0 -5 -2 -10
-4 -10 -3 0 -8 5 -11 10 -3 6 -1 10 4 10 6 0 11 -4 11 -10z m336 -5 c-1 -8 -5
-17 -8 -21 -5 -4 -4 16 1 34 3 9 9 -1 7 -13z m-1102 -25 c-6 -6 -10 -3 -10 10
0 13 4 16 10 10 7 -7 7 -13 0 -20z m-123 3 c13 -17 13 -17 -6 -3 -11 8 -22 16
-24 17 -2 2 0 3 6 3 6 0 17 -8 24 -17z m519 13 c0 -2 -8 -10 -17 -17 -16 -13
-17 -12 -4 4 13 16 21 21 21 13z m794 -4 c3 -5 -1 -9 -9 -9 -8 0 -12 4 -9 9 3
4 7 8 9 8 2 0 6 -4 9 -8z m476 4 c0 -3 -4 -8 -10 -11 -5 -3 -10 -1 -10 4 0 6
5 11 10 11 6 0 10 -2 10 -4z m-1801 -50 c-3 -3 -11 5 -18 17 -13 21 -12 21 5
5 10 -10 16 -20 13 -22z m781 24 c0 -5 -2 -10 -4 -10 -3 0 -8 5 -11 10 -3 6
-1 10 4 10 6 0 11 -4 11 -10z m40 0 c0 -5 -5 -10 -11 -10 -5 0 -7 5 -4 10 3 6
8 10 11 10 2 0 4 -4 4 -10z m156 -2 c3 -4 -1 -5 -10 -4 -8 1 -18 5 -22 8 -3 4
1 5 10 4 8 -1 18 -5 22 -8z m54 6 c0 -8 -19 -13 -24 -6 -3 5 1 9 9 9 8 0 15
-2 15 -3z m-1095 -13 c3 -5 2 -12 -3 -15 -5 -3 -9 1 -9 9 0 17 3 19 12 6z
m137 -6 c2 3 5 -2 5 -10 0 -19 0 -19 -23 7 -12 14 -13 18 -3 10 9 -6 18 -10
21 -7z m85 2 c0 -14 -40 -17 -53 -4 -4 3 3 5 14 2 12 -2 24 0 27 6 8 13 12 11
12 -4z m524 -4 c13 -16 12 -17 -3 -4 -10 7 -18 15 -18 17 0 8 8 3 21 -13z
m-735 -21 c-17 -16 -18 -16 -5 5 7 12 15 20 18 17 3 -2 -3 -12 -13 -22z m369
9 c3 -5 2 -12 -3 -15 -5 -3 -9 1 -9 9 0 17 3 19 12 6z m675 -7 c0 -8 -19 -13
-24 -6 -3 5 1 9 9 9 8 0 15 -2 15 -3z m-514 -24 c0 -12 -4 -16 -9 -11 -5 5 -6
14 -3 20 10 15 12 14 12 -9z m-391 0 c3 -6 -1 -7 -9 -4 -18 7 -21 14 -7 14 6
0 13 -4 16 -10z m92 -5 c0 -8 -4 -12 -9 -9 -4 3 -8 9 -8 15 0 5 4 9 8 9 5 0 9
-7 9 -15z m1583 3 c0 -4 -4 -8 -9 -8 -6 0 -12 4 -15 8 -3 5 1 9 9 9 8 0 15 -4
15 -9z m-1799 -15 c13 -16 12 -17 -3 -4 -10 7 -18 15 -18 17 0 8 8 3 21 -13z
m36 -15 c4 -28 -6 -18 -12 12 -2 12 -1 20 2 16 4 -4 8 -16 10 -28z m358 4 c-3
-3 -11 0 -18 7 -9 10 -8 11 6 5 10 -3 15 -9 12 -12z m481 6 c3 -4 -1 -5 -10
-4 -8 1 -18 5 -22 8 -3 4 1 5 10 4 8 -1 18 -5 22 -8z m60 -14 c1 -9 0 -13 -4
-10 -3 4 -7 14 -8 22 -1 9 0 13 4 10 3 -4 7 -14 8 -22z m-955 -1 c13 -16 12
-17 -3 -4 -10 7 -18 15 -18 17 0 8 8 3 21 -13z m149 2 c-7 -9 -15 -13 -18 -10
-3 3 -12 -1 -21 -8 -14 -11 -14 -10 -2 5 7 10 17 16 21 13 5 -3 11 -1 15 5 3
5 9 10 12 10 3 0 0 -7 -7 -15z m180 -1 c0 -8 -19 -13 -24 -6 -3 5 1 9 9 9 8 0
15 -2 15 -3z m427 -13 c0 -11 -5 -18 -9 -15 -4 3 -5 11 -1 19 7 21 12 19 10
-4z m307 11 c3 -5 -1 -9 -9 -9 -8 0 -12 4 -9 9 3 4 7 8 9 8 2 0 6 -4 9 -8z
m-344 -22 c0 -5 -5 -10 -11 -10 -5 0 -7 5 -4 10 3 6 8 10 11 10 2 0 4 -4 4
-10z m80 4 c0 -8 -19 -13 -24 -6 -3 5 1 9 9 9 8 0 15 -2 15 -3z m74 -2 c2 -4
-5 -9 -17 -9 -17 -2 -19 0 -7 7 18 12 18 12 24 2z m-833 -19 c13 -16 12 -17
-3 -4 -10 7 -18 15 -18 17 0 8 8 3 21 -13z m36 2 c0 -8 -4 -15 -9 -15 -10 0
-11 14 -1 23 9 10 10 9 10 -8z m63 -7 c0 -4 -4 -8 -9 -8 -6 0 -12 4 -15 8 -3
5 1 9 9 9 8 0 15 -4 15 -9z m237 -3 c0 -8 -4 -12 -9 -9 -5 3 -6 10 -3 15 9 13
12 11 12 -6z m536 0 c4 -8 3 -16 -1 -19 -4 -3 -9 4 -9 15 -2 23 3 25 10 4z
m52 5 c-3 -5 -12 -10 -18 -10 -7 0 -6 4 3 10 19 12 23 12 15 0z m-711 -19 c3
-4 -4 -17 -17 -27 -22 -19 -22 -19 -4 2 9 11 14 24 10 27 -3 4 -4 7 0 7 3 0 8
-4 11 -9z m84 -26 c-3 -3 -9 2 -12 12 -6 14 -5 15 5 6 7 -7 10 -15 7 -18z
m-224 7 c3 -5 -1 -9 -9 -9 -8 0 -12 4 -9 9 3 4 7 8 9 8 2 0 6 -4 9 -8z m63
-17 c0 -8 -4 -12 -9 -9 -5 3 -6 10 -3 15 9 13 12 11 12 -6z m-227 1 c0 -2 -8
-10 -17 -17 -16 -13 -17 -12 -4 4 13 16 21 21 21 13z m80 0 c0 -2 -8 -10 -17
-17 -16 -13 -17 -12 -4 4 13 16 21 21 21 13z m59 -10 c9 -11 9 -16 -1 -22 -7
-4 -10 -4 -6 1 4 4 3 14 -3 22 -6 7 -9 13 -6 13 2 0 10 -6 16 -14z m651 9 c0
-7 -30 -13 -34 -7 -3 4 4 9 15 9 10 1 19 0 19 -2z m-440 -9 c0 -2 -6 -9 -14
-15 -11 -9 -16 -9 -22 0 -4 7 -3 9 4 5 6 -3 13 -2 17 4 6 10 15 14 15 6z m41
-13 c13 -16 12 -17 -3 -4 -10 7 -18 15 -18 17 0 8 8 3 21 -13z m757 -8 c-3 -3
-9 2 -12 12 -6 14 -5 15 5 6 7 -7 10 -15 7 -18z m-1082 -30 c1 -8 -1 -17 -5
-19 -4 -3 -7 6 -7 19 0 25 8 25 12 0z m659 16 c-9 -8 -36 -10 -30 -2 2 4 11 8
20 8 8 0 13 -3 10 -6z m169 1 c3 -5 -1 -9 -9 -9 -8 0 -12 4 -9 9 3 4 7 8 9 8
2 0 6 -4 9 -8z m-873 -29 c17 -20 18 -23 3 -10 -11 9 -23 15 -26 12 -2 -3 -5
2 -5 10 0 19 -1 20 28 -12z m1566 12 c0 -8 -4 -15 -9 -15 -10 0 -11 14 -1 23
9 10 10 9 10 -8z m-1382 -4 c-9 -8 -36 -10 -30 -2 2 4 11 8 20 8 8 0 13 -3 10
-6z m420 -9 c-3 -3 -11 0 -18 7 -9 10 -8 11 6 5 10 -3 15 -9 12 -12z m389 10
c3 -5 -1 -9 -9 -9 -8 0 -12 4 -9 9 3 4 7 8 9 8 2 0 6 -4 9 -8z m-194 -18 c0
-8 -19 -13 -24 -6 -3 5 1 9 9 9 8 0 15 -2 15 -3z m-806 -23 c-7 -8 -54 -9 -49
-1 2 3 15 6 29 6 14 0 23 -2 20 -5z m711 -1 c3 -5 1 -10 -4 -10 -6 0 -11 5
-11 10 0 6 2 10 4 10 3 0 8 -4 11 -10z m41 -16 c1 -9 0 -13 -4 -10 -3 4 -7 14
-8 22 -1 9 0 13 4 10 3 -4 7 -14 8 -22z m710 14 c3 -4 -1 -5 -10 -4 -8 1 -18
5 -22 8 -3 4 1 5 10 4 8 -1 18 -5 22 -8z m-946 -18 c0 -5 -2 -10 -4 -10 -3 0
-8 5 -11 10 -3 6 -1 10 4 10 6 0 11 -4 11 -10z m40 0 c0 -5 -5 -10 -11 -10 -5
0 -7 5 -4 10 3 6 8 10 11 10 2 0 4 -4 4 -10z m-583 -28 c0 -10 -6 -19 -13 -19
-9 0 -9 5 -1 19 7 10 13 18 14 18 1 0 1 -8 0 -18z m38 -10 c-3 -3 1 -12 8 -21
11 -14 10 -14 -6 -2 -9 8 -15 16 -12 19 3 3 -1 12 -8 21 -11 14 -10 14 6 2 9
-8 15 -16 12 -19z m82 3 c0 -8 -4 -12 -9 -9 -5 3 -6 10 -3 15 9 13 12 11 12
-6z m547 -3 c3 -5 -1 -9 -9 -9 -8 0 -12 4 -9 9 3 4 7 8 9 8 2 0 6 -4 9 -8z
m69 -17 c-7 -21 -12 -19 -10 4 0 11 5 18 9 15 4 -3 5 -11 1 -19z m-117 -21 c1
-9 0 -13 -4 -10 -3 4 -7 14 -8 22 -1 9 0 13 4 10 3 -4 7 -14 8 -22z m204 22
c0 -2 -7 -7 -16 -10 -8 -3 -12 -2 -9 4 6 10 25 14 25 6z m654 -12 c3 -8 2 -12
-4 -9 -6 3 -10 10 -10 16 0 14 7 11 14 -7z m-897 -19 c0 -8 -4 -12 -9 -9 -5 3
-6 10 -3 15 9 13 12 11 12 -6z m118 6 c-9 -8 -36 -10 -30 -2 2 4 11 8 20 8 8
0 13 -3 10 -6z m-685 -17 c0 -8 -19 -13 -24 -6 -3 5 1 9 9 9 8 0 15 -2 15 -3z
m410 -24 c0 -5 -5 -10 -11 -10 -5 0 -7 5 -4 10 3 6 8 10 11 10 2 0 4 -4 4 -10z
m76 -2 c3 -4 -1 -5 -10 -4 -8 1 -18 5 -22 8 -3 4 1 5 10 4 8 -1 18 -5 22 -8z
m215 -11 c-10 -9 -11 -8 -5 6 3 10 9 15 12 12 3 -3 0 -11 -7 -18z m-601 -3 c0
-8 -19 -13 -24 -6 -3 5 1 9 9 9 8 0 15 -2 15 -3z m445 -23 c-9 -8 -36 -10 -30
-2 2 4 11 8 20 8 8 0 13 -3 10 -6z m-59 -43 c3 -4 -1 -5 -10 -4 -8 1 -18 5
-22 8 -3 4 1 5 10 4 8 -1 18 -5 22 -8z m64 -3 c0 -2 -9 -3 -19 -2 -11 0 -18 5
-15 9 4 6 34 0 34 -7z m-559 -12 c13 -16 12 -17 -3 -4 -17 13 -22 21 -14 21 2
0 10 -8 17 -17z m375 -8 c-1 -8 -5 -17 -8 -21 -5 -4 -4 16 1 34 3 9 9 -1 7
-13z m904 5 c0 -5 -2 -10 -4 -10 -3 0 -8 5 -11 10 -3 6 -1 10 4 10 6 0 11 -4
11 -10z m-944 -36 c1 -9 0 -13 -4 -10 -3 4 -7 14 -8 22 -1 9 0 13 4 10 3 -4 7
-14 8 -22z m121 11 c0 -8 -4 -12 -9 -9 -5 3 -6 10 -3 15 9 13 12 11 12 -6z
m-497 1 c0 -2 -8 -10 -17 -17 -16 -13 -17 -12 -4 4 13 16 21 21 21 13z m1234
-14 c3 -5 -1 -9 -9 -9 -8 0 -12 4 -9 9 3 4 7 8 9 8 2 0 6 -4 9 -8z m-894 -16
c0 -3 -4 -8 -10 -11 -5 -3 -10 -1 -10 4 0 6 5 11 10 11 6 0 10 -2 10 -4z m76
-22 c1 -9 0 -13 -4 -10 -3 4 -7 14 -8 22 -1 9 0 13 4 10 3 -4 7 -14 8 -22z
m-331 -3 c-9 -8 -36 -10 -30 -2 2 4 11 8 20 8 8 0 13 -3 10 -6z m75 3 c0 -8
-19 -13 -24 -6 -3 5 1 9 9 9 8 0 15 -2 15 -3z m475 -4 c3 -5 1 -10 -4 -10 -6
0 -11 5 -11 10 0 6 2 10 4 10 3 0 8 -4 11 -10z m-130 -40 c-3 -5 -12 -10 -18
-10 -7 0 -6 4 3 10 19 12 23 12 15 0z m-90 -12 c5 4 5 1 1 -6 -6 -10 -11 -10
-22 -1 -8 6 -14 14 -14 16 0 3 6 0 13 -6 8 -6 18 -7 22 -3z m-235 -8 c0 -5 -2
-10 -4 -10 -3 0 -8 5 -11 10 -3 6 -1 10 4 10 6 0 11 -4 11 -10z m116 -16 c1
-9 0 -13 -4 -10 -3 4 -7 14 -8 22 -1 9 0 13 4 10 3 -4 7 -14 8 -22z m40 11
c-1 -8 -5 -17 -8 -21 -5 -4 -4 16 1 34 3 9 9 -1 7 -13z m-676 -16 c0 -5 -4 -9
-8 -9 -5 0 -9 7 -9 15 0 8 4 12 9 9 4 -3 8 -9 8 -15z m221 4 c13 -16 12 -17
-3 -4 -17 13 -22 21 -14 21 2 0 10 -8 17 -17z m119 -7 c-7 -7 -13 -7 -20 0 -6
6 -3 10 10 10 13 0 16 -4 10 -10z m75 -4 c-3 -3 -11 0 -18 7 -9 10 -8 11 6 5
10 -3 15 -9 12 -12z m45 12 c0 -8 -19 -13 -24 -6 -3 5 1 9 9 9 8 0 15 -2 15
-3z m334 -2 c3 -5 -1 -9 -9 -9 -8 0 -12 4 -9 9 3 4 7 8 9 8 2 0 6 -4 9 -8z
m657 -9 c13 -16 12 -17 -3 -4 -17 13 -22 21 -14 21 2 0 10 -8 17 -17z m-1436
-33 c3 -5 1 -10 -4 -10 -6 0 -11 5 -11 10 0 6 2 10 4 10 3 0 8 -4 11 -10z
m215 6 c0 -2 -8 -10 -17 -17 -16 -13 -17 -12 -4 4 13 16 21 21 21 13z m115 -6
c3 -6 -1 -7 -9 -4 -18 7 -21 14 -7 14 6 0 13 -4 16 -10z m112 -5 c0 -8 -4 -12
-9 -9 -5 3 -6 10 -3 15 9 13 12 11 12 -6z m139 0 c-1 -8 -5 -17 -8 -21 -5 -4
-4 16 1 34 3 9 9 -1 7 -13z m-736 1 c0 -2 -8 -10 -17 -17 -16 -13 -17 -12 -4
4 13 16 21 21 21 13z m-56 -34 c3 -5 -1 -9 -9 -9 -8 0 -12 4 -9 9 3 4 7 8 9 8
2 0 6 -4 9 -8z m73 -9 c0 -8 -4 -10 -12 -3 -7 5 -16 6 -20 2 -5 -4 -5 -2 -2 4
9 15 34 13 34 -3z m227 9 c3 -5 -1 -9 -9 -9 -8 0 -12 4 -9 9 3 4 7 8 9 8 2 0
6 -4 9 -8z m452 -18 c1 -9 0 -13 -4 -10 -3 4 -7 14 -8 22 -1 9 0 13 4 10 3 -4
7 -14 8 -22z m-76 -4 c0 -5 -2 -10 -4 -10 -3 0 -8 5 -11 10 -3 6 -1 10 4 10 6
0 11 -4 11 -10z m-723 -15 c0 -8 -4 -15 -9 -15 -10 0 -11 14 -1 23 9 10 10 9
10 -8z m343 11 c0 -2 -8 -10 -17 -17 -16 -13 -17 -12 -4 4 13 16 21 21 21 13z
m-380 -15 c0 -6 -4 -12 -8 -15 -5 -3 -9 1 -9 9 0 8 4 15 9 15 4 0 8 -4 8 -9z
m130 5 c0 -2 -8 -10 -17 -17 -16 -13 -17 -12 -4 4 13 16 21 21 21 13z m25 -6
c3 -5 1 -10 -4 -10 -6 0 -11 5 -11 10 0 6 2 10 4 10 3 0 8 -4 11 -10z m1545 6
c0 -2 -7 -7 -16 -10 -8 -3 -12 -2 -9 4 6 10 25 14 25 6z m-1063 -31 c0 -8 -4
-12 -9 -9 -5 3 -6 10 -3 15 9 13 12 11 12 -6z m200 0 c0 -8 -4 -12 -9 -9 -5 3
-6 10 -3 15 9 13 12 11 12 -6z m-377 1 c0 -2 -8 -10 -17 -17 -16 -13 -17 -12
-4 4 13 16 21 21 21 13z m-503 -23 c0 -10 -4 -10 -16 -1 -9 7 -18 13 -20 15
-2 1 5 1 16 0 11 0 20 -7 20 -14z m63 7 c0 -5 -2 -10 -4 -10 -3 0 -8 5 -11 10
-3 6 -1 10 4 10 6 0 11 -4 11 -10z m40 4 c0 -8 -19 -13 -24 -6 -3 5 1 9 9 9 8
0 15 -2 15 -3z m75 -3 c-9 -8 -36 -10 -30 -2 2 4 11 8 20 8 8 0 13 -3 10 -6z
m442 -6 c0 -8 -4 -12 -9 -9 -5 3 -6 10 -3 15 9 13 12 11 12 -6z m523 5 c0 -5
-5 -10 -11 -10 -5 0 -7 5 -4 10 3 6 8 10 11 10 2 0 4 -4 4 -10z m515 1 c3 -5
2 -12 -3 -15 -5 -3 -9 1 -9 9 0 17 3 19 12 6z m-1759 -30 c-10 -10 -25 -18
-34 -16 -9 1 -24 -3 -32 -9 -13 -9 -13 -9 -2 6 7 9 22 15 32 13 10 -2 24 3 31
11 6 8 14 14 17 14 3 0 -3 -9 -12 -19z m360 -5 c1 -7 -4 -13 -12 -13 -9 0 -11
4 -4 12 5 7 8 15 5 18 -3 4 -2 5 2 2 4 -3 8 -11 9 -19z m49 14 c-3 -5 -12 -10
-18 -10 -7 0 -6 4 3 10 19 12 23 12 15 0z m369 2 c3 -5 -1 -9 -9 -9 -8 0 -12
4 -9 9 3 4 7 8 9 8 2 0 6 -4 9 -8z m80 0 c3 -5 -1 -9 -9 -9 -8 0 -12 4 -9 9 3
4 7 8 9 8 2 0 6 -4 9 -8z m56 2 c0 -8 -19 -13 -24 -6 -3 5 1 9 9 9 8 0 15 -2
15 -3z m-835 -54 c1 -17 0 -32 -4 -34 -3 -2 -7 13 -7 35 -1 45 7 45 11 -1z
m855 36 c0 -2 -8 -10 -17 -17 -16 -13 -17 -12 -4 4 13 16 21 21 21 13z m-1055
-44 c-3 -3 1 -12 7 -21 10 -14 10 -14 -2 -3 -8 7 -15 18 -15 25 -1 7 -7 11
-14 9 -7 -1 -10 2 -6 8 5 8 11 7 21 -1 8 -6 12 -14 9 -17z m239 12 c3 -8 2
-12 -4 -9 -6 3 -10 10 -10 16 0 14 7 11 14 -7z m621 7 c-9 -8 -36 -10 -30 -2
2 4 11 8 20 8 8 0 13 -3 10 -6z m60 0 c-9 -8 -36 -10 -30 -2 2 4 11 8 20 8 8
0 13 -3 10 -6z m-774 -18 c13 -16 12 -17 -3 -4 -10 7 -18 15 -18 17 0 8 8 3
21 -13z m340 0 c13 -16 12 -17 -3 -4 -10 7 -18 15 -18 17 0 8 8 3 21 -13z
m-452 -7 c9 -11 9 -16 -1 -22 -7 -4 -10 -4 -6 1 4 4 3 14 -3 22 -6 7 -9 13 -6
13 2 0 10 -6 16 -14z m305 -2 c3 -8 2 -12 -4 -9 -6 3 -10 10 -10 16 0 14 7 11
14 -7z m476 10 c0 -8 -19 -13 -24 -6 -3 5 1 9 9 9 8 0 15 -2 15 -3z m-889 -21
c13 -16 12 -17 -3 -4 -17 13 -22 21 -14 21 2 0 10 -8 17 -17z m313 -1 c3 -5
-1 -9 -9 -9 -8 0 -12 4 -9 9 3 4 7 8 9 8 2 0 6 -4 9 -8z m622 -4 c3 -4 -1 -5
-10 -4 -8 1 -18 5 -22 8 -3 4 1 5 10 4 8 -1 18 -5 22 -8z m-960 -24 c1 -9 0
-13 -4 -10 -3 4 -7 14 -8 22 -1 9 0 13 4 10 3 -4 7 -14 8 -22z m238 8 c3 -5
-1 -9 -9 -9 -8 0 -12 4 -9 9 3 4 7 8 9 8 2 0 6 -4 9 -8z m230 0 c3 -5 -1 -9
-9 -9 -8 0 -12 4 -9 9 3 4 7 8 9 8 2 0 6 -4 9 -8z m533 -17 c0 -8 -4 -12 -9
-9 -5 3 -6 10 -3 15 9 13 12 11 12 -6z m-1097 -10 c-10 -12 -10 -18 1 -32 12
-17 12 -17 -6 -1 -15 14 -16 20 -5 32 7 9 15 16 17 16 3 0 0 -7 -7 -15z m92
-9 c3 3 8 1 12 -4 11 -18 -25 -8 -41 12 -18 21 -18 21 3 3 11 -9 23 -14 26
-11z m113 15 c-9 -8 -36 -10 -30 -2 2 4 11 8 20 8 8 0 13 -3 10 -6z m32 -13
c2 -17 0 -19 -7 -8 -5 8 -6 18 -4 22 8 12 10 10 11 -14z m38 4 c-3 -3 -11 0
-18 7 -9 10 -8 11 6 5 10 -3 15 -9 12 -12z m36 1 c13 -16 12 -17 -3 -4 -17 13
-22 21 -14 21 2 0 10 -8 17 -17z m669 7 c0 -5 -5 -10 -11 -10 -5 0 -7 5 -4 10
3 6 8 10 11 10 2 0 4 -4 4 -10z m-185 -9 c3 -5 2 -12 -3 -15 -5 -3 -9 1 -9 9
0 17 3 19 12 6z m-759 -26 c-2 -35 -11 -39 -12 -4 -1 16 2 29 6 29 4 0 6 -11
6 -25z m724 21 c0 -2 -7 -7 -16 -10 -8 -3 -12 -2 -9 4 6 10 25 14 25 6z m260
-6 c0 -5 -5 -10 -11 -10 -5 0 -7 5 -4 10 3 6 8 10 11 10 2 0 4 -4 4 -10z m255
1 c-9 -8 -36 -10 -30 -2 2 4 11 8 20 8 8 0 13 -3 10 -6z m-1359 -10 c-4 -5 0
-11 6 -14 7 -3 3 -4 -9 -4 -17 1 -19 4 -11 14 12 15 22 18 14 4z m357 -6 c-3
-9 -8 -14 -10 -11 -3 3 -2 9 2 15 9 16 15 13 8 -4z m587 1 c0 -3 -4 -8 -10
-11 -5 -3 -10 -1 -10 4 0 6 5 11 10 11 6 0 10 -2 10 -4z m274 -4 c3 -5 -1 -9
-9 -9 -8 0 -12 4 -9 9 3 4 7 8 9 8 2 0 6 -4 9 -8z m-1158 -28 c1 -9 0 -13 -4
-10 -3 4 -7 14 -8 22 -1 9 0 13 4 10 3 -4 7 -14 8 -22z m170 4 c3 -4 -1 -5
-10 -4 -8 1 -18 5 -22 8 -3 4 1 5 10 4 8 -1 18 -5 22 -8z m649 -6 c-3 -3 -11
0 -18 7 -9 10 -8 11 6 5 10 -3 15 -9 12 -12z m-905 -8 c0 -8 -19 -13 -24 -6
-3 5 1 9 9 9 8 0 15 -2 15 -3z m1066 -6 c3 -4 -1 -5 -10 -4 -8 1 -18 5 -22 8
-3 4 1 5 10 4 8 -1 18 -5 22 -8z m-1203 -13 c-3 -9 -8 -14 -10 -11 -3 3 -2 9
2 15 9 16 15 13 8 -4z m42 -6 c-3 -12 -7 -24 -10 -27 -3 -3 -3 5 -1 19 6 30 5
29 10 29 3 0 3 -10 1 -21z m285 18 c0 -2 -8 -11 -18 -20 -15 -14 -19 -15 -19
-2 0 8 4 12 8 9 4 -2 10 0 14 6 6 10 15 14 15 7z m436 -17 c0 -12 -4 -16 -9
-11 -5 5 -6 14 -3 20 10 15 12 14 12 -9z m85 3 c13 -16 12 -17 -3 -4 -17 13
-22 21 -14 21 2 0 10 -8 17 -17z m79 13 c0 -2 -8 -10 -17 -17 -16 -13 -17 -12
-4 4 13 16 21 21 21 13z m-683 -30 c18 -21 18 -21 -3 -3 -11 9 -23 14 -26 11
-3 -3 -8 -1 -12 4 -11 18 25 8 41 -12z m203 14 c0 -5 -2 -10 -4 -10 -3 0 -8 5
-11 10 -3 6 -1 10 4 10 6 0 11 -4 11 -10z m40 6 c0 -2 -7 -7 -16 -10 -8 -3
-12 -2 -9 4 6 10 25 14 25 6z m557 -11 c0 -8 -4 -12 -9 -9 -5 3 -6 10 -3 15 9
13 12 11 12 -6z m263 11 c0 -3 -4 -8 -10 -11 -5 -3 -10 -1 -10 4 0 6 5 11 10
11 6 0 10 -2 10 -4z m-1185 -16 c-3 -5 -12 -10 -18 -10 -7 0 -6 4 3 10 19 12
23 12 15 0z m-193 -12 c-5 -7 -9 -28 -7 -46 1 -18 0 -34 -4 -36 -10 -6 -8 66
2 82 5 6 11 12 14 12 3 0 1 -6 -5 -12z m35 -7 c-10 -12 -9 -14 4 -9 9 4 16 1
16 -8 0 -9 -5 -10 -15 -5 -20 11 -24 38 -6 38 11 0 11 -3 1 -16z m403 5 c-7
-7 -13 -7 -20 0 -6 6 -3 10 10 10 13 0 16 -4 10 -10z m275 -4 c-3 -3 -11 0
-18 7 -9 10 -8 11 6 5 10 -3 15 -9 12 -12z m461 3 c-1 -8 -5 -17 -8 -21 -5 -4
-4 16 1 34 3 9 9 -1 7 -13z m-1041 -4 c3 -5 2 -12 -3 -15 -5 -3 -9 1 -9 9 0
17 3 19 12 6z m166 -8 c13 -16 12 -17 -3 -4 -17 13 -22 21 -14 21 2 0 10 -8
17 -17z m696 2 c0 -8 -4 -12 -9 -9 -5 3 -6 10 -3 15 9 13 12 11 12 -6z m-851
-23 c-17 -16 -18 -16 -5 5 7 12 15 20 18 17 3 -2 -3 -12 -13 -22z m105 11 c13
-16 12 -17 -3 -4 -17 13 -22 21 -14 21 2 0 10 -8 17 -17z m229 -8 c14 -19 14
-19 -2 -6 -10 7 -18 18 -18 24 0 6 1 8 3 6 1 -2 9 -13 17 -24z m64 16 c3 -5
-2 -8 -12 -7 -9 0 -16 -5 -14 -12 1 -8 -2 -11 -8 -7 -8 5 -7 11 1 21 13 16 25
18 33 5z m113 -6 c0 -8 -4 -12 -9 -9 -4 3 -8 9 -8 15 0 5 4 9 8 9 5 0 9 -7 9
-15z m263 5 c0 -5 -5 -10 -11 -10 -5 0 -7 5 -4 10 3 6 8 10 11 10 2 0 4 -4 4
-10z m296 -5 c-1 -8 -5 -17 -8 -21 -5 -4 -4 16 1 34 3 9 9 -1 7 -13z m994 9
c0 -8 -19 -13 -24 -6 -3 5 1 9 9 9 8 0 15 -2 15 -3z m-2095 -32 c-3 -3 -11 0
-18 7 -9 10 -8 11 6 5 10 -3 15 -9 12 -12z m137 -6 c3 3 8 1 12 -4 11 -18 -25
-8 -41 12 -18 21 -18 21 3 3 11 -9 23 -14 26 -11z m152 16 c2 -4 -4 -8 -14 -8
-10 0 -16 4 -14 8 3 4 9 8 14 8 5 0 11 -4 14 -8z m947 -15 c-10 -9 -11 -8 -5
6 3 10 9 15 12 12 3 -3 0 -11 -7 -18z m-1414 -2 c18 1 30 -1 28 -5 -3 -5 -13
-7 -23 -5 -9 1 -26 -1 -37 -5 -16 -6 -21 -4 -21 11 0 11 4 15 11 9 5 -4 25 -7
42 -5z m240 0 c0 -8 -3 -13 -5 -10 -3 3 -12 -1 -21 -7 -10 -8 -9 -4 3 10 23
26 23 26 23 7z m164 -2 c13 -16 12 -17 -3 -4 -10 7 -18 15 -18 17 0 8 8 3 21
-13z m493 -13 c-6 -6 -10 -3 -10 10 0 13 4 16 10 10 7 -7 7 -13 0 -20z m603
15 c0 -8 -4 -12 -9 -9 -5 3 -6 10 -3 15 9 13 12 11 12 -6z m-1127 1 c0 -2 -8
-10 -17 -17 -16 -13 -17 -12 -4 4 13 16 21 21 21 13z m610 -4 c0 -5 -7 -9 -15
-9 -8 0 -12 4 -9 9 3 4 9 8 15 8 5 0 9 -4 9 -8z m40 -2 c0 -5 -5 -10 -11 -10
-5 0 -7 5 -4 10 3 6 8 10 11 10 2 0 4 -4 4 -10z m35 1 c3 -5 2 -12 -3 -15 -5
-3 -9 1 -9 9 0 17 3 19 12 6z m61 -6 c-1 -8 -5 -17 -8 -21 -5 -4 -4 16 1 34 3
9 9 -1 7 -13z m-932 -20 c-4 -8 -11 -15 -16 -15 -6 0 -5 6 2 15 7 8 14 15 16
15 2 0 1 -7 -2 -15z m267 -2 c13 -16 12 -17 -3 -4 -10 7 -18 15 -18 17 0 8 8
3 21 -13z m704 8 c3 -5 2 -12 -3 -15 -5 -3 -9 1 -9 9 0 17 3 19 12 6z m45 3
c0 -8 -19 -13 -24 -6 -3 5 1 9 9 9 8 0 15 -2 15 -3z m-1343 -10 c-3 -3 -12 -4
-19 -1 -8 3 -5 6 6 6 11 1 17 -2 13 -5z m78 -3 c3 -5 2 -12 -3 -15 -5 -3 -9 1
-9 9 0 17 3 19 12 6z m302 -6 c0 -8 -4 -12 -9 -9 -5 3 -6 10 -3 15 9 13 12 11
12 -6z m-30 -17 c-3 -8 -6 -5 -6 6 -1 11 2 17 5 13 3 -3 4 -12 1 -19z m437 14
c3 -5 -1 -9 -9 -9 -8 0 -12 4 -9 9 3 4 7 8 9 8 2 0 6 -4 9 -8z m47 -15 c-10
-9 -11 -8 -5 6 3 10 9 15 12 12 3 -3 0 -11 -7 -18z m289 13 c0 -5 -2 -10 -4
-10 -3 0 -8 5 -11 10 -3 6 -1 10 4 10 6 0 11 -4 11 -10z m-1116 -16 c4 -10 2
-13 -6 -8 -8 5 -9 1 -4 -12 4 -10 4 -15 0 -11 -4 4 -12 2 -19 -3 -8 -7 -12 -5
-12 5 0 8 5 11 10 8 6 -4 8 1 4 11 -4 10 -3 15 3 11 6 -3 10 -1 10 4 0 16 7
13 14 -5z m119 3 c3 -8 -1 -14 -8 -14 -7 0 -11 6 -8 14 3 7 6 13 8 13 2 0 5
-6 8 -13z m-201 -15 c-4 -11 -1 -13 8 -7 9 6 11 4 5 -5 -6 -10 -11 -10 -20 3
-7 9 -16 13 -20 9 -5 -4 -5 -2 -2 4 10 17 36 13 29 -4z m243 8 c-3 -5 -12 -10
-18 -10 -7 0 -6 4 3 10 19 12 23 12 15 0z m125 5 c0 -2 -6 -8 -13 -14 -10 -8
-14 -7 -14 2 0 8 6 14 14 14 7 0 13 -1 13 -2z m35 -5 c3 -6 -1 -7 -9 -4 -18 7
-21 14 -7 14 6 0 13 -4 16 -10z m205 6 c0 -2 -8 -10 -17 -17 -16 -13 -17 -12
-4 4 13 16 21 21 21 13z m66 -20 c0 -14 -3 -23 -7 -20 -6 3 -6 22 0 42 3 10 7
-2 7 -22z m119 15 c3 -5 2 -12 -3 -15 -5 -3 -9 1 -9 9 0 17 3 19 12 6z m-637
-26 c-3 -3 -9 2 -12 12 -6 14 -5 15 5 6 7 -7 10 -15 7 -18z m299 10 c0 -8 -3
-13 -5 -10 -3 3 -12 -1 -21 -7 -10 -8 -9 -4 3 10 23 26 23 26 23 7z m63 12 c0
-2 -8 -11 -18 -20 -15 -14 -19 -15 -19 -2 0 8 4 12 8 9 4 -2 10 0 14 6 6 10
15 14 15 7z m440 -1 c0 -2 -8 -10 -17 -17 -16 -13 -17 -12 -4 4 13 16 21 21
21 13z m195 -5 c3 -5 2 -12 -3 -15 -5 -3 -9 1 -9 9 0 17 3 19 12 6z m-765 -5
c0 -2 -8 -10 -17 -17 -16 -13 -17 -12 -4 4 13 16 21 21 21 13z m867 -15 c0
-11 -5 -18 -9 -15 -4 3 -5 11 -1 19 7 21 12 19 10 -4z m323 15 c0 -2 -7 -7
-16 -10 -8 -3 -12 -2 -9 4 6 10 25 14 25 6z m-1679 -29 c-10 -9 -11 -8 -5 6 3
10 9 15 12 12 3 -3 0 -11 -7 -18z m435 11 c4 -7 3 -8 -5 -4 -6 4 -20 2 -29 -6
-15 -12 -16 -11 -3 5 16 20 27 22 37 5z m381 -1 c0 -8 -6 -14 -14 -14 -9 0
-10 4 -2 14 6 7 12 13 14 13 1 0 2 -6 2 -13z m-478 -31 c-3 -3 -11 5 -18 17
-13 21 -12 21 5 5 10 -10 16 -20 13 -22z m162 21 c-6 -8 -7 -18 -3 -22 4 -5 1
-5 -6 -1 -10 6 -10 11 -1 22 6 8 14 14 16 14 3 0 0 -6 -6 -13z m899 7 c0 -8
-19 -13 -24 -6 -3 5 1 9 9 9 8 0 15 -2 15 -3z m56 -6 c3 -4 -1 -5 -10 -4 -8 1
-18 5 -22 8 -3 4 1 5 10 4 8 -1 18 -5 22 -8z m-519 -11 c0 -8 -6 -14 -14 -14
-9 0 -10 4 -2 14 6 7 12 13 14 13 1 0 2 -6 2 -13z m-787 -12 c11 -13 10 -14
-5 -9 -11 5 -16 4 -12 -3 3 -5 0 -10 -8 -10 -10 0 -12 4 -5 12 5 7 7 15 3 18
-3 4 -2 7 4 7 6 0 16 -7 23 -15z m169 -8 c0 -8 -2 -8 -6 1 -4 10 -10 9 -27 -5
l-21 -18 19 22 c19 23 37 22 35 0z m155 7 c3 -8 2 -12 -4 -9 -6 3 -10 10 -10
16 0 14 7 11 14 -7z m66 -9 c14 -19 14 -19 -2 -6 -10 7 -18 18 -18 24 0 6 1 8
3 6 1 -2 9 -13 17 -24z m66 -3 c-17 -16 -18 -16 -5 5 7 12 15 20 18 17 3 -2
-3 -12 -13 -22z m90 16 c4 -7 4 -10 -1 -6 -4 4 -15 2 -24 -5 -14 -11 -14 -10
-2 6 16 20 18 21 27 5z m614 6 c0 -8 -19 -13 -24 -6 -3 5 1 9 9 9 8 0 15 -2
15 -3z m250 -4 c0 -5 -5 -10 -11 -10 -5 0 -7 5 -4 10 3 6 8 10 11 10 2 0 4 -4
4 -10z m131 -13 c-10 -9 -11 -8 -5 6 3 10 9 15 12 12 3 -3 0 -11 -7 -18z m459
19 c0 -2 -8 -10 -17 -17 -16 -13 -17 -12 -4 4 13 16 21 21 21 13z m-2223 -13
c-9 -2 -14 -9 -11 -15 4 -7 2 -8 -5 -4 -15 10 -4 26 17 25 15 -1 15 -2 -1 -6z
m98 -11 c-3 -3 -11 0 -18 7 -9 10 -8 11 6 5 10 -3 15 -9 12 -12z m-45 -7 c0
-1 -7 -8 -15 -15 -13 -11 -14 -10 -9 5 6 14 4 16 -6 10 -8 -5 -11 -4 -6 3 5 9
36 7 36 -3z m1140 5 c0 -5 -2 -10 -4 -10 -3 0 -8 5 -11 10 -3 6 -1 10 4 10 6
0 11 -4 11 -10z m35 0 c3 -5 1 -10 -4 -10 -6 0 -11 5 -11 10 0 6 2 10 4 10 3
0 8 -4 11 -10z m201 -16 c1 -9 0 -13 -4 -10 -3 4 -7 14 -8 22 -1 9 0 13 4 10
3 -4 7 -14 8 -22z m139 16 c3 -5 1 -10 -4 -10 -6 0 -11 5 -11 10 0 6 2 10 4
10 3 0 8 -4 11 -10z m-1581 -29 c-2 -3 -12 3 -22 13 -16 17 -16 18 5 5 12 -7
20 -15 17 -18z m452 7 c12 -14 13 -18 3 -10 -9 6 -18 10 -21 7 -2 -3 -5 2 -5
10 0 19 0 19 23 -7z m575 5 c13 -16 12 -17 -3 -4 -17 13 -22 21 -14 21 2 0 10
-8 17 -17z m-1077 -8 c-4 -8 -11 -12 -16 -9 -6 4 -5 10 3 15 19 12 19 11 13
-6z m350 3 c-3 -5 -10 -6 -15 -3 -5 4 -9 1 -9 -6 0 -7 -3 -10 -6 -6 -9 9 3 24
20 24 8 0 13 -4 10 -9z m41 -6 c-3 -3 -11 0 -18 7 -9 10 -8 11 6 5 10 -3 15
-9 12 -12z m62 1 c0 -9 -4 -10 -14 -2 -7 6 -13 12 -13 14 0 1 6 2 13 2 8 0 14
-6 14 -14z m159 5 c4 -7 4 -10 -1 -6 -4 4 -15 2 -24 -5 -14 -11 -14 -10 -2 6
16 20 18 21 27 5z m224 6 c0 -8 -19 -13 -24 -6 -3 5 1 9 9 9 8 0 15 -2 15 -3z
m57 -9 c0 -8 -4 -12 -9 -9 -4 3 -8 9 -8 15 0 5 4 9 8 9 5 0 9 -7 9 -15z m903
5 c0 -5 -2 -10 -4 -10 -3 0 -8 5 -11 10 -3 6 -1 10 4 10 6 0 11 -4 11 -10z
m-1003 -15 c0 -8 -4 -12 -9 -9 -5 3 -6 10 -3 15 9 13 12 11 12 -6z m-821 -7
c4 -7 3 -8 -4 -4 -7 4 -12 3 -12 -3 0 -5 6 -12 13 -14 9 -4 9 -6 0 -6 -15 -1
-26 16 -18 29 8 13 12 13 21 -2z m101 -3 c0 -8 -4 -12 -9 -9 -5 3 -6 10 -3 15
9 13 12 11 12 -6z m166 -2 c-4 -10 -2 -14 4 -10 5 3 10 0 10 -7 0 -11 -4 -12
-18 -3 -13 8 -15 15 -7 24 14 18 19 16 11 -4z m127 13 c0 -2 -8 -10 -17 -17
-16 -13 -17 -12 -4 4 13 16 21 21 21 13z m190 -10 c-7 -7 -13 -7 -20 0 -6 6
-3 10 10 10 13 0 16 -4 10 -10z m620 10 c0 -3 -4 -8 -10 -11 -5 -3 -10 -1 -10
4 0 6 5 11 10 11 6 0 10 -2 10 -4z m120 -6 c0 -5 -2 -10 -4 -10 -3 0 -8 5 -11
10 -3 6 -1 10 4 10 6 0 11 -4 11 -10z m124 2 c3 -5 -1 -9 -9 -9 -8 0 -12 4 -9
9 3 4 7 8 9 8 2 0 6 -4 9 -8z m150 0 c3 -5 -1 -9 -9 -9 -8 0 -12 4 -9 9 3 4 7
8 9 8 2 0 6 -4 9 -8z m-1534 -12 c-13 -9 -13 -11 0 -20 9 -6 10 -10 3 -10 -6
0 -15 5 -18 10 -8 13 3 30 18 30 7 0 6 -4 -3 -10z m101 -5 c5 4 6 -2 2 -11 -4
-11 -8 -13 -11 -6 -2 7 -8 10 -13 7 -5 -4 -6 2 -2 11 4 11 8 13 11 6 2 -7 8
-10 13 -7z m296 -16 c-1 -11 -10 -28 -22 -37 -19 -17 -20 -16 -4 3 9 11 15 30
14 42 -1 12 2 20 6 17 4 -2 7 -13 6 -25z m176 16 c-3 -9 -8 -14 -10 -11 -3 3
-2 9 2 15 9 16 15 13 8 -4z m81 -15 c-6 -6 -10 -3 -10 10 0 13 4 16 10 10 7
-7 7 -13 0 -20z m66 9 c0 -5 -4 -9 -8 -9 -5 0 -9 7 -9 15 0 8 4 12 9 9 4 -3 8
-9 8 -15z m-863 -11 c-3 -8 -6 -5 -6 6 -1 11 2 17 5 13 3 -3 4 -12 1 -19z
m437 6 c3 -8 2 -12 -4 -9 -6 3 -10 10 -10 16 0 14 7 11 14 -7z m751 6 c-3 -5
-12 -10 -18 -10 -7 0 -6 4 3 10 19 12 23 12 15 0z m620 0 c3 -6 -1 -7 -9 -4
-18 7 -21 14 -7 14 6 0 13 -4 16 -10z m575 0 c0 -5 -4 -10 -10 -10 -5 0 -10 5
-10 10 0 6 5 10 10 10 6 0 10 -4 10 -10z m-2420 -15 c0 -2 -9 -9 -20 -15 -12
-6 -20 -7 -20 -1 0 5 8 12 18 14 9 3 18 5 20 6 1 0 2 -1 2 -4z m16 -19 c0 -14
-5 -21 -9 -17 -4 4 -5 15 -1 24 9 24 12 21 10 -7z m58 12 c-5 -8 -1 -9 12 -4
14 5 16 4 7 -5 -13 -13 -37 -3 -28 12 4 5 8 9 11 9 3 0 2 -5 -2 -12z m466 -2
c-7 -7 -13 -7 -20 0 -6 6 -3 10 10 10 13 0 16 -4 10 -10z m85 5 c-9 -8 -36
-10 -30 -2 2 4 11 8 20 8 8 0 13 -3 10 -6z m735 -1 c0 -5 -5 -10 -11 -10 -5 0
-7 5 -4 10 3 6 8 10 11 10 2 0 4 -4 4 -10z m40 0 c0 -5 -2 -10 -4 -10 -3 0 -8
5 -11 10 -3 6 -1 10 4 10 6 0 11 -4 11 -10z m154 -2 c-3 -4 -11 -5 -19 -1 -21
7 -19 12 4 10 11 0 18 -5 15 -9z m61 2 c3 -5 1 -10 -4 -10 -6 0 -11 5 -11 10
0 6 2 10 4 10 3 0 8 -4 11 -10z m36 -13 c-10 -9 -11 -8 -5 6 3 10 9 15 12 12
3 -3 0 -11 -7 -18z m-1514 7 c-3 -3 -12 -4 -19 -1 -8 3 -5 6 6 6 11 1 17 -2
13 -5z m203 -17 c0 -6 -3 -7 -7 -4 -3 4 -11 3 -17 -3 -8 -6 -12 -3 -12 9 0 12
6 17 18 13 10 -2 18 -9 18 -15z m341 6 c13 -16 12 -17 -3 -4 -10 7 -18 15 -18
17 0 8 8 3 21 -13z m80 0 c13 -16 12 -17 -3 -4 -17 13 -22 21 -14 21 2 0 10
-8 17 -17z m36 2 c0 -8 -4 -15 -9 -15 -10 0 -11 14 -1 23 9 10 10 9 10 -8z
m156 0 c-3 -9 -8 -14 -10 -11 -3 3 -2 9 2 15 9 16 15 13 8 -4z m-894 -29 c-3
-3 -11 5 -18 17 -13 21 -12 21 5 5 10 -10 16 -20 13 -22z m412 11 c-10 -9 -11
-8 -5 6 3 10 9 15 12 12 3 -3 0 -11 -7 -18z m179 19 c0 -2 -8 -10 -17 -17 -16
-13 -17 -12 -4 4 13 16 21 21 21 13z m-710 -27 c0 -5 -4 -9 -8 -9 -5 0 -9 7
-9 15 0 8 4 12 9 9 4 -3 8 -9 8 -15z m214 12 c4 -5 -3 -7 -14 -4 -23 6 -26 13
-6 13 8 0 17 -4 20 -9z m140 -17 c3 -8 2 -12 -4 -9 -6 3 -10 10 -10 16 0 14 7
11 14 -7z m1066 6 c0 -5 -5 -10 -11 -10 -5 0 -7 5 -4 10 3 6 8 10 11 10 2 0 4
-4 4 -10z m120 0 c0 -5 -2 -10 -4 -10 -3 0 -8 5 -11 10 -3 6 -1 10 4 10 6 0
11 -4 11 -10z m-1623 -22 c0 -13 -1 -17 -4 -10 -3 6 -9 10 -14 6 -5 -3 -9 -1
-9 5 0 5 6 12 13 14 6 3 12 6 12 6 1 1 1 -9 2 -21z m118 3 c-8 -14 -25 -14
-25 0 0 5 5 7 10 4 6 -3 10 -1 10 6 0 7 3 10 6 6 3 -3 3 -10 -1 -16z m62 0
c-1 -19 -27 -18 -27 1 0 5 5 6 10 3 6 -3 10 -1 10 4 0 6 2 11 4 11 3 0 4 -9 3
-19z m140 4 c0 -8 -4 -12 -9 -9 -4 3 -8 0 -8 -7 0 -7 -3 -9 -6 -6 -4 4 -1 13
6 22 15 19 17 19 17 0z m601 -10 c-3 -3 -9 2 -12 12 -6 14 -5 15 5 6 7 -7 10
-15 7 -18z m-868 5 c0 -5 -4 -10 -10 -10 -5 0 -10 5 -10 10 0 6 5 10 10 10 6
0 10 -4 10 -10z m330 4 c0 -8 -19 -13 -24 -6 -3 5 1 9 9 9 8 0 15 -2 15 -3z
m160 -2 c0 -4 -10 -9 -22 -9 -18 -2 -20 0 -8 7 18 12 30 13 30 2z m205 -3 c-3
-3 -17 -5 -32 -4 -15 1 -33 -2 -39 -6 -6 -5 -11 -4 -11 4 0 8 15 13 43 13 23
0 41 -3 39 -7z m369 -5 c3 -8 2 -12 -4 -9 -6 3 -10 10 -10 16 0 14 7 11 14 -7z
m1281 6 c3 -5 1 -10 -4 -10 -6 0 -11 5 -11 10 0 6 2 10 4 10 3 0 8 -4 11 -10z
m-2437 -25 c-3 -3 -9 2 -12 12 -6 14 -5 15 5 6 7 -7 10 -15 7 -18z m457 15 c4
-6 -1 -7 -11 -3 -10 4 -15 2 -11 -4 3 -5 0 -10 -8 -10 -11 0 -12 4 -4 14 14
15 26 17 34 3z m64 -3 c8 -10 7 -14 -4 -14 -8 0 -11 5 -8 10 4 6 -1 8 -11 4
-10 -4 -15 -3 -11 3 8 14 20 12 34 -3z m1176 4 c3 -5 2 -12 -3 -15 -5 -3 -9 1
-9 9 0 17 3 19 12 6z m-1738 -32 c0 -21 -3 -26 -9 -16 -4 9 -5 22 -2 31 9 23
11 20 11 -15z m640 24 c-4 -3 -1 -13 6 -22 11 -14 10 -14 -5 -2 -16 12 -16 31
-1 31 4 0 3 -3 0 -7z m43 -7 c-7 -7 -13 -7 -20 0 -6 6 -3 10 10 10 13 0 16 -4
10 -10z m50 9 c0 -1 -10 -10 -22 -21 -14 -12 -18 -13 -10 -3 6 9 10 18 7 21
-3 2 2 5 10 5 8 0 15 -1 15 -2z m190 -9 c-7 -7 -13 -7 -20 0 -6 6 -3 10 10 10
13 0 16 -4 10 -10z m37 -1 c0 -8 -4 -12 -9 -9 -5 3 -6 10 -3 15 9 13 12 11 12
-6z m623 5 c0 -5 -2 -10 -4 -10 -3 0 -8 5 -11 10 -3 6 -1 10 4 10 6 0 11 -4
11 -10z m250 4 c0 -8 -19 -13 -24 -6 -3 5 1 9 9 9 8 0 15 -2 15 -3z m-1790
-48 c0 -6 -7 -1 -15 10 -8 10 -15 23 -15 28 0 6 7 1 15 -10 8 -10 15 -23 15
-28z m30 30 c0 -3 -4 -8 -10 -11 -5 -3 -10 -1 -10 4 0 6 5 11 10 11 6 0 10 -2
10 -4z m40 -6 c12 -7 10 -9 -8 -7 -12 0 -22 5 -22 9 0 11 12 10 30 -2z m59 1
c10 -7 7 -9 -12 -8 -14 1 -23 5 -20 10 6 9 15 9 32 -2z m51 -1 c0 -5 -4 -10
-10 -10 -5 0 -10 5 -10 10 0 6 5 10 10 10 6 0 10 -4 10 -10z m60 2 c0 -5 -7
-9 -15 -9 -8 0 -12 4 -9 9 3 4 9 8 15 8 5 0 9 -4 9 -8z m74 -1 c-9 -9 -34 -9
-34 -1 0 5 9 8 20 7 10 -1 17 -3 14 -6z m81 0 c-9 -8 -36 -10 -30 -2 2 4 11 8
20 8 8 0 13 -3 10 -6z m315 5 c0 -2 -8 -10 -17 -17 -16 -13 -17 -12 -4 4 13
16 21 21 21 13z m267 -11 c0 -8 -4 -12 -9 -9 -4 3 -8 9 -8 15 0 5 4 9 8 9 5 0
9 -7 9 -15z m157 -1 c3 -8 2 -12 -4 -9 -6 3 -10 10 -10 16 0 14 7 11 14 -7z
m461 -2 c-3 -3 -11 0 -18 7 -9 10 -8 11 6 5 10 -3 15 -9 12 -12z m-1670 -5
c15 -12 16 -15 4 -22 -8 -5 -10 -4 -6 0 4 5 -3 15 -15 22 -13 7 -18 12 -12 13
5 0 18 -6 29 -13z m-51 -21 c-3 -9 -10 -16 -15 -16 -5 0 -4 9 3 20 14 22 21
20 12 -4z m395 12 c-1 -1 3 -12 9 -24 9 -16 8 -21 -3 -21 -7 0 -11 7 -7 15 3
9 1 13 -5 9 -6 -4 -13 0 -16 8 -4 10 -1 12 10 8 12 -5 14 -3 8 8 -4 8 -5 11
-1 7 4 -3 7 -8 5 -10z m136 2 c-3 -5 -14 -10 -23 -9 -14 0 -13 2 3 9 27 11 27
11 20 0z m72 -12 c2 -18 0 -20 -7 -8 -12 18 -13 30 -2 30 4 0 9 -10 9 -22z
m253 18 c0 -2 -8 -10 -17 -17 -16 -13 -17 -12 -4 4 13 16 21 21 21 13z m186
-11 c-1 -8 -5 -17 -8 -21 -5 -4 -4 16 1 34 3 9 9 -1 7 -13z m584 11 c0 -3 -4
-8 -10 -11 -5 -3 -10 -1 -10 4 0 6 5 11 10 11 6 0 10 -2 10 -4z m-1516 -21 c3
-8 1 -15 -4 -15 -6 0 -10 7 -10 15 0 8 2 15 4 15 2 0 6 -7 10 -15z m66 -20 c0
-5 -5 -3 -10 5 -5 8 -10 20 -10 25 0 6 5 3 10 -5 5 -8 10 -19 10 -25z m66 15
c0 -12 -4 -16 -9 -11 -5 5 -6 14 -3 20 10 15 12 14 12 -9z m114 -5 c14 -19 14
-19 -2 -6 -10 7 -18 18 -18 24 0 6 1 8 3 6 1 -2 9 -13 17 -24z m310 21 c0 -2
-8 -10 -17 -17 -16 -13 -17 -12 -4 4 13 16 21 21 21 13z m113 -11 c-3 -9 -8
-14 -10 -11 -3 3 -2 9 2 15 9 16 15 13 8 -4z m-236 -9 c0 -8 -8 -11 -21 -8
-19 5 -19 6 0 13 10 4 19 8 20 8 0 1 1 -5 1 -13z m347 6 c3 -5 -1 -9 -9 -9 -8
0 -15 4 -15 9 0 4 4 8 9 8 6 0 12 -4 15 -8z m201 -1 c-9 -8 -36 -10 -30 -2 2
4 11 8 20 8 8 0 13 -3 10 -6z m160 -1 c-3 -5 -12 -10 -18 -10 -7 0 -6 4 3 10
19 12 23 12 15 0z m245 6 c0 -2 -8 -10 -17 -17 -16 -13 -17 -12 -4 4 13 16 21
21 21 13z m35 -6 c-3 -5 -12 -10 -18 -10 -7 0 -6 4 3 10 19 12 23 12 15 0z
m200 0 c-3 -5 -12 -10 -18 -10 -7 0 -6 4 3 10 19 12 23 12 15 0z m-1679 -21
c5 1 9 -7 9 -16 0 -10 6 -22 13 -26 6 -4 12 -12 12 -17 0 -6 -8 -3 -19 6 -11
10 -16 24 -13 36 3 12 0 18 -8 16 -7 -2 -15 4 -17 12 -4 12 -3 12 5 2 5 -8 13
-13 18 -13z m237 7 c4 -10 0 -12 -15 -8 -15 4 -17 7 -6 13 17 11 15 11 21 -5z
m-123 -31 c0 -5 -5 -3 -10 5 -5 8 -10 20 -10 25 0 6 5 3 10 -5 5 -8 10 -19 10
-25z m44 20 c-4 -8 -11 -12 -16 -9 -6 4 -5 10 3 15 19 12 19 11 13 -6z m271
-18 c1 -14 -2 -32 -6 -39 -4 -7 -7 3 -5 22 2 19 -2 39 -8 43 -7 6 -6 7 4 5 8
-3 15 -16 15 -31z m369 25 c2 -4 -4 -8 -14 -8 -10 0 -16 4 -14 8 3 4 9 8 14 8
5 0 11 -4 14 -8z m831 -1 c-9 -8 -36 -10 -30 -2 2 4 11 8 20 8 8 0 13 -3 10
-6z m101 -6 c-1 -8 -5 -17 -8 -21 -5 -4 -4 16 1 34 3 9 9 -1 7 -13z m-1442 -8
c-3 -8 -11 -14 -19 -14 -21 0 -19 15 3 20 9 3 18 5 19 6 1 0 0 -5 -3 -12z
m276 -1 c-7 -7 -13 -7 -20 0 -6 6 -3 10 10 10 13 0 16 -4 10 -10z m63 1 c4 3
7 1 7 -5 0 -17 -16 -15 -31 6 -12 15 -12 16 2 5 9 -7 19 -10 22 -6z m113 -9
c12 -14 13 -18 3 -10 -9 6 -18 10 -21 7 -2 -3 -5 2 -5 10 0 19 0 19 23 -7z
m111 9 c0 -8 -6 -14 -14 -14 -9 0 -10 4 -2 14 6 7 12 13 14 13 1 0 2 -6 2 -13z
m-877 -1 c0 -3 -4 -8 -10 -11 -5 -3 -10 -1 -10 4 0 6 5 11 10 11 6 0 10 -2 10
-4z m104 -10 c-8 -20 -32 -28 -40 -13 -4 7 -4 9 1 5 4 -4 14 -1 22 7 18 19 24
19 17 1z m117 1 c-6 -8 -8 -17 -4 -20 3 -4 1 -7 -5 -7 -15 0 -15 13 0 28 16
16 23 15 9 -1z m110 -10 c-10 -9 -11 -8 -5 6 3 10 9 15 12 12 3 -3 0 -11 -7
-18z m89 19 c0 -3 -4 -8 -10 -11 -5 -3 -10 -1 -10 4 0 6 5 11 10 11 6 0 10 -2
10 -4z m91 -19 c-10 -9 -11 -8 -5 6 3 10 9 15 12 12 3 -3 0 -11 -7 -18z m453
12 c3 -2 -10 -5 -29 -5 -18 0 -32 3 -30 7 5 7 52 6 59 -2z m261 1 c3 -6 -1 -7
-9 -4 -18 7 -21 14 -7 14 6 0 13 -4 16 -10z m269 -6 c3 -8 2 -12 -4 -9 -6 3
-10 10 -10 16 0 14 7 11 14 -7z m-875 -7 c8 -10 7 -14 -2 -14 -8 0 -14 6 -14
14 0 7 1 13 2 13 2 0 8 -6 14 -13z m-354 -26 c0 -16 -3 -27 -7 -24 -13 7 -7
53 6 53 1 0 1 -13 1 -29z m115 9 c-6 -10 -5 -21 1 -27 6 -6 5 -10 -5 -10 -8 0
-15 3 -14 6 2 19 -4 24 -12 11 -7 -12 -9 -10 -7 7 1 18 4 20 16 10 12 -10 14
-9 9 4 -4 9 -1 16 7 16 10 0 11 -5 5 -17z m610 17 c0 -2 -9 -12 -19 -21 -14
-13 -21 -14 -27 -5 -4 7 -3 10 3 6 6 -4 16 0 23 8 12 14 20 19 20 12z m27 -12
c0 -8 -4 -12 -9 -9 -5 3 -6 10 -3 15 9 13 12 11 12 -6z m538 -16 c1 -11 -1
-22 -5 -24 -3 -2 -6 9 -6 25 0 33 9 32 11 -1z m-1405 17 c0 -2 -7 -7 -16 -10
-8 -3 -12 -2 -9 4 6 10 25 14 25 6z m694 -14 c3 -5 -1 -9 -9 -9 -8 0 -15 4
-15 9 0 4 4 8 9 8 6 0 12 -4 15 -8z m491 -10 c-3 -3 -11 0 -18 7 -9 10 -8 11
6 5 10 -3 15 -9 12 -12z m-1207 -27 c-3 -3 -9 2 -12 12 -6 14 -5 15 5 6 7 -7
10 -15 7 -18z m410 8 c-12 -15 -22 -18 -14 -4 4 5 0 11 -6 14 -7 3 -3 4 9 4
17 -1 19 -4 11 -14z m42 2 c-5 -7 -9 -14 -7 -16 1 -2 0 -3 -2 -2 -2 2 -11 -3
-20 -9 -12 -10 -12 -7 2 8 9 11 15 23 12 26 -3 2 2 5 10 5 10 0 12 -4 5 -12z
m50 10 c0 -1 -10 -10 -22 -21 -14 -12 -18 -13 -10 -3 6 9 10 18 7 21 -3 2 2 5
10 5 8 0 15 -1 15 -2z m40 0 c0 -1 -12 -12 -27 -26 -20 -17 -23 -18 -10 -3 9
11 15 23 12 26 -3 2 2 5 10 5 8 0 15 -1 15 -2z m114 -3 c2 -4 -4 -8 -14 -8
-10 0 -16 4 -14 8 3 4 9 8 14 8 5 0 11 -4 14 -8z m116 0 c0 -5 -7 -9 -15 -9
-8 0 -12 4 -9 9 3 4 9 8 15 8 5 0 9 -4 9 -8z m165 -2 c3 -6 -1 -7 -9 -4 -18 7
-21 14 -7 14 6 0 13 -4 16 -10z m-573 -15 c3 3 11 -3 19 -12 11 -15 11 -16 -1
-6 -11 10 -16 9 -27 -5 -8 -9 -12 -11 -8 -4 4 7 1 21 -7 30 -11 15 -11 15 3 5
9 -7 18 -11 21 -8z m466 -10 c-3 -3 -9 2 -12 12 -6 14 -5 15 5 6 7 -7 10 -15
7 -18z m-735 -4 c3 -13 1 -18 -9 -14 -7 2 -10 11 -7 19 7 19 10 18 16 -5z m93
0 c1 -6 0 -7 -2 -2 -3 5 -17 7 -32 5 -19 -3 -23 -2 -13 5 18 12 44 7 47 -8z
m374 15 c0 -2 -8 -10 -17 -17 -16 -13 -17 -12 -4 4 13 16 21 21 21 13z m39
-10 c9 -11 9 -16 -1 -22 -7 -4 -10 -4 -6 1 4 4 3 14 -3 22 -6 7 -9 13 -6 13 2
0 10 -6 16 -14z m206 5 c3 -5 2 -12 -3 -15 -5 -3 -9 1 -9 9 0 17 3 19 12 6z
m400 -1 c3 -5 1 -10 -4 -10 -6 0 -11 5 -11 10 0 6 2 10 4 10 3 0 8 -4 11 -10z
m141 -16 c1 -9 0 -13 -4 -10 -3 4 -7 14 -8 22 -1 9 0 13 4 10 3 -4 7 -14 8
-22z m-1019 3 c0 -8 -6 -14 -14 -14 -9 0 -10 4 -2 14 6 7 12 13 14 13 1 0 2
-6 2 -13z m-42 -15 c-3 -3 -11 0 -18 7 -9 10 -8 11 6 5 10 -3 15 -9 12 -12z
m356 1 c13 -16 12 -17 -3 -4 -10 7 -18 15 -18 17 0 8 8 3 21 -13z m93 5 c-3
-4 -9 -8 -15 -8 -5 0 -9 4 -9 8 0 5 7 9 15 9 8 0 12 -4 9 -9z m40 4 c3 -5 -1
-9 -9 -9 -8 0 -12 4 -9 9 3 4 7 8 9 8 2 0 6 -4 9 -8z m536 -2 c0 -5 -5 -10
-11 -10 -5 0 -7 5 -4 10 3 6 8 10 11 10 2 0 4 -4 4 -10z m115 1 c3 -5 2 -12
-3 -15 -5 -3 -9 1 -9 9 0 17 3 19 12 6z m-962 -16 c-3 -9 -8 -14 -10 -11 -3 3
-2 9 2 15 9 16 15 13 8 -4z m-276 -12 c0 -10 -3 -10 -16 0 -12 10 -14 9 -9 -4
4 -9 1 -16 -7 -16 -10 0 -11 5 -5 17 11 20 37 22 37 3z m237 1 c3 -8 2 -12 -4
-9 -6 3 -10 10 -10 16 0 14 7 11 14 -7z m421 6 c3 -5 1 -10 -4 -10 -6 0 -11 5
-11 10 0 6 2 10 4 10 3 0 8 -4 11 -10z m365 0 c0 -5 -2 -10 -4 -10 -3 0 -8 5
-11 10 -3 6 -1 10 4 10 6 0 11 -4 11 -10z m31 -13 c-10 -9 -11 -8 -5 6 3 10 9
15 12 12 3 -3 0 -11 -7 -18z m320 0 c-10 -9 -11 -8 -5 6 3 10 9 15 12 12 3 -3
0 -11 -7 -18z m-1236 -5 c-3 -3 0 -11 6 -19 17 -20 5 -16 -14 5 -15 16 -15 19
-2 19 8 0 13 -3 10 -5z m51 -4 c3 -4 -1 -5 -10 -4 -8 1 -18 5 -22 8 -3 4 1 5
10 4 8 -1 18 -5 22 -8z m192 -7 c-7 -9 -13 -18 -15 -20 -1 -2 -1 5 0 16 0 11
7 20 14 20 10 0 10 -4 1 -16z m212 15 c0 -2 -8 -10 -17 -17 -16 -13 -17 -12
-4 4 13 16 21 21 21 13z m607 -11 c0 -8 -4 -12 -9 -9 -5 3 -6 10 -3 15 9 13
12 11 12 -6z m54 -8 c-10 -9 -11 -8 -5 6 3 10 9 15 12 12 3 -3 0 -11 -7 -18z
m83 7 c3 -8 2 -12 -4 -9 -6 3 -10 10 -10 16 0 14 7 11 14 -7z m-1267 0 c-3 -3
-12 -4 -19 -1 -8 3 -5 6 6 6 11 1 17 -2 13 -5z m165 -9 c2 3 5 -2 5 -10 0 -19
0 -19 -23 7 -12 14 -13 18 -3 10 9 -6 18 -10 21 -7z m67 -12 c2 -1 -5 -1 -16
0 -11 0 -20 7 -20 14 0 10 4 10 16 1 9 -7 18 -13 20 -15z m401 23 c0 -2 -8
-10 -17 -17 -16 -13 -17 -12 -4 4 13 16 21 21 21 13z m111 -23 c13 -16 12 -17
-3 -4 -10 7 -18 15 -18 17 0 8 8 3 21 -13z m-794 -18 c0 -8 -4 -12 -9 -9 -4 3
-8 9 -8 15 0 5 4 9 8 9 5 0 9 -7 9 -15z m198 -13 c-3 -3 1 -12 8 -21 11 -14
10 -14 -6 -2 -9 8 -15 16 -12 19 3 3 -1 12 -8 21 -11 14 -10 14 6 2 9 -8 15
-16 12 -19z m780 19 c3 -5 2 -12 -3 -15 -5 -3 -9 1 -9 9 0 17 3 19 12 6z m45
3 c0 -8 -19 -13 -24 -6 -3 5 1 9 9 9 8 0 15 -2 15 -3z m77 -9 c0 -8 -4 -12 -9
-9 -5 3 -6 10 -3 15 9 13 12 11 12 -6z m-1037 1 c0 -2 -8 -10 -17 -17 -16 -13
-17 -12 -4 4 13 16 21 21 21 13z m198 -21 c-3 -3 -9 2 -12 12 -6 14 -5 15 5 6
7 -7 10 -15 7 -18z m-148 11 c0 -2 -8 -10 -17 -17 -16 -13 -17 -12 -4 4 13 16
21 21 21 13z m300 0 c0 -2 -8 -10 -17 -17 -16 -13 -17 -12 -4 4 13 16 21 21
21 13z m765 -6 c3 -5 1 -10 -4 -10 -6 0 -11 5 -11 10 0 6 2 10 4 10 3 0 8 -4
11 -10z m45 0 c0 -5 -2 -10 -4 -10 -3 0 -8 5 -11 10 -3 6 -1 10 4 10 6 0 11
-4 11 -10z m-1090 -14 c0 -2 -8 -10 -17 -17 -16 -13 -17 -12 -4 4 13 16 21 21
21 13z m314 -4 c3 -5 -1 -9 -9 -9 -8 0 -15 4 -15 9 0 4 4 8 9 8 6 0 12 -4 15
-8z m36 -2 c0 -5 -2 -10 -4 -10 -3 0 -8 5 -11 10 -3 6 -1 10 4 10 6 0 11 -4
11 -10z m120 6 c0 -2 -7 -7 -16 -10 -8 -3 -12 -2 -9 4 6 10 25 14 25 6z m180
-6 c0 -5 -2 -10 -4 -10 -3 0 -8 5 -11 10 -3 6 -1 10 4 10 6 0 11 -4 11 -10z
m40 0 c0 -5 -2 -10 -4 -10 -3 0 -8 5 -11 10 -3 6 -1 10 4 10 6 0 11 -4 11 -10z
m35 0 c3 -5 1 -10 -4 -10 -6 0 -11 5 -11 10 0 6 2 10 4 10 3 0 8 -4 11 -10z
m121 -2 c3 -4 -1 -5 -10 -4 -8 1 -18 5 -22 8 -3 4 1 5 10 4 8 -1 18 -5 22 -8z
m44 2 c0 -5 -2 -10 -4 -10 -3 0 -8 5 -11 10 -3 6 -1 10 4 10 6 0 11 -4 11 -10z
m-770 -15 c-7 -8 -17 -15 -23 -15 -6 0 -2 7 9 15 25 19 30 19 14 0z m64 -14
c-2 -3 -12 3 -22 13 -16 17 -16 18 5 5 12 -7 20 -15 17 -18z m52 7 c3 -4 -1
-5 -10 -4 -8 1 -18 5 -22 8 -3 4 1 5 10 4 8 -1 18 -5 22 -8z m159 2 c3 -6 -1
-7 -9 -4 -18 7 -21 14 -7 14 6 0 13 -4 16 -10z m121 -2 c3 -4 -1 -5 -10 -4 -8
1 -18 5 -22 8 -3 4 1 5 10 4 8 -1 18 -5 22 -8z m578 4 c3 -5 -1 -9 -9 -9 -8 0
-12 4 -9 9 3 4 7 8 9 8 2 0 6 -4 9 -8z m-444 -22 c0 -5 -2 -10 -4 -10 -3 0 -8
5 -11 10 -3 6 -1 10 4 10 6 0 11 -4 11 -10z m380 6 c0 -3 -4 -8 -10 -11 -5 -3
-10 -1 -10 4 0 6 5 11 10 11 6 0 10 -2 10 -4z m-780 -10 c0 -2 -8 -10 -17 -17
-16 -13 -17 -12 -4 4 13 16 21 21 21 13z m-160 -10 c0 -2 -7 -7 -16 -10 -8 -3
-12 -2 -9 4 6 10 25 14 25 6z m660 -31 c0 -2 -9 -3 -19 -2 -11 0 -18 5 -15 9
4 6 34 0 34 -7z m70 9 c0 -8 -19 -13 -24 -6 -3 5 1 9 9 9 8 0 15 -2 15 -3z
m27 -16 c2 -17 0 -19 -7 -8 -5 8 -6 18 -4 22 8 12 10 10 11 -14z m-564 -3 c-3
-9 -8 -14 -10 -11 -3 3 -2 9 2 15 9 16 15 13 8 -4z m45 -10 c-3 -3 -9 2 -12
12 -6 14 -5 15 5 6 7 -7 10 -15 7 -18z m-201 0 c0 -8 -4 -12 -9 -9 -4 3 -8 9
-8 15 0 5 4 9 8 9 5 0 9 -7 9 -15z m77 7 c2 -4 -5 -9 -17 -9 -17 -2 -19 0 -7
7 18 12 18 12 24 2z m326 -22 c0 -5 -5 -10 -11 -10 -5 0 -7 5 -4 10 3 6 8 10
11 10 2 0 4 -4 4 -10z m40 0 c0 -5 -5 -10 -11 -10 -5 0 -7 5 -4 10 3 6 8 10
11 10 2 0 4 -4 4 -10z m40 6 c0 -3 -4 -8 -10 -11 -5 -3 -10 -1 -10 4 0 6 5 11
10 11 6 0 10 -2 10 -4z m-6 -48 c-3 -4 -11 -5 -19 -1 -21 7 -19 12 4 10 11 0
18 -5 15 -9z m82 -3 c-1 -8 -5 -17 -8 -21 -5 -4 -4 16 1 34 3 9 9 -1 7 -13z
m117 -10 c-7 -21 -12 -19 -10 4 0 11 5 18 9 15 4 -3 5 -11 1 -19z m-572 -2
c13 -16 12 -17 -3 -4 -10 7 -18 15 -18 17 0 8 8 3 21 -13z m329 1 c0 -8 -19
-13 -24 -6 -3 5 1 9 9 9 8 0 15 -2 15 -3z m47 -19 c0 -8 -4 -12 -9 -9 -5 3 -6
10 -3 15 9 13 12 11 12 -6z m260 0 c0 -8 -4 -12 -9 -9 -5 3 -6 10 -3 15 9 13
12 11 12 -6z m-482 -33 c-3 -3 -11 0 -18 7 -9 10 -8 11 6 5 10 -3 15 -9 12
-12z m65 -6 c0 -3 -4 -8 -10 -11 -5 -3 -10 -1 -10 4 0 6 5 11 10 11 6 0 10 -2
10 -4z m35 -6 c3 -5 1 -10 -4 -10 -6 0 -11 5 -11 10 0 6 2 10 4 10 3 0 8 -4
11 -10z m121 -16 c1 -9 0 -13 -4 -10 -3 4 -7 14 -8 22 -1 9 0 13 4 10 3 -4 7
-14 8 -22z m104 16 c0 -5 -5 -10 -11 -10 -5 0 -7 5 -4 10 3 6 8 10 11 10 2 0
4 -4 4 -10z m-320 -20 c0 -5 -5 -10 -11 -10 -5 0 -7 5 -4 10 3 6 8 10 11 10 2
0 4 -4 4 -10z m393 -15 c-3 -9 -8 -14 -10 -11 -3 3 -2 9 2 15 9 16 15 13 8 -4z
m-233 -10 c0 -2 -9 -3 -19 -2 -11 0 -18 5 -15 9 4 6 34 0 34 -7z m435 -4 c3
-5 2 -12 -3 -15 -5 -3 -9 1 -9 9 0 17 3 19 12 6z m-290 -11 c3 -6 -1 -7 -9 -4
-18 7 -21 14 -7 14 6 0 13 -4 16 -10z m-211 -18 c3 -5 -1 -9 -9 -9 -8 0 -12 4
-9 9 3 4 7 8 9 8 2 0 6 -4 9 -8z m381 -22 c3 -5 1 -10 -4 -10 -6 0 -11 5 -11
10 0 6 2 10 4 10 3 0 8 -4 11 -10z m-165 -36 c0 -8 -19 -13 -24 -6 -3 5 1 9 9
9 8 0 15 -2 15 -3z m126 -40 c1 -9 0 -13 -4 -10 -3 4 -7 14 -8 22 -1 9 0 13 4
10 3 -4 7 -14 8 -22z m725 -361 c13 -16 12 -17 -3 -4 -10 7 -18 15 -18 17 0 8
8 3 21 -13z"/>
<path d="M3165 7320 c0 -23 4 -39 10 -37 5 2 10 19 10 37 0 18 -5 35 -10 37
-6 2 -10 -14 -10 -37z"/>
<path d="M3200 7330 c-8 -5 -11 -12 -7 -16 4 -4 15 0 24 9 18 18 8 23 -17 7z"/>
<path d="M3206 7175 c-9 -14 -13 -25 -8 -25 5 0 18 11 30 25 15 17 18 25 8 25
-7 0 -21 -11 -30 -25z"/>
<path d="M3400 7049 c0 -5 5 -7 10 -4 6 3 10 8 10 11 0 2 -4 4 -10 4 -5 0 -10
-5 -10 -11z"/>
<path d="M3347 6963 c-4 -3 -7 -11 -7 -17 0 -6 5 -5 12 2 6 6 9 14 7 17 -3 3
-9 2 -12 -2z"/>
<path d="M3145 6790 c-3 -5 -2 -10 4 -10 5 0 13 5 16 10 3 6 2 10 -4 10 -5 0
-13 -4 -16 -10z"/>
<path d="M3000 6710 c0 -5 5 -10 11 -10 5 0 7 5 4 10 -3 6 -8 10 -11 10 -2 0
-4 -4 -4 -10z"/>
</g>
</svg>
